%TF.GenerationSoftware,KiCad,Pcbnew,9.0.7*%
%TF.CreationDate,2026-01-21T12:23:45+05:30*%
%TF.ProjectId,ntp-devboard,6e74702d-6465-4766-926f-6172642e6b69,rev?*%
%TF.SameCoordinates,Original*%
%TF.FileFunction,Soldermask,Top*%
%TF.FilePolarity,Negative*%
%FSLAX46Y46*%
G04 Gerber Fmt 4.6, Leading zero omitted, Abs format (unit mm)*
G04 Created by KiCad (PCBNEW 9.0.7) date 2026-01-21 12:23:45*
%MOMM*%
%LPD*%
G01*
G04 APERTURE LIST*
G04 Aperture macros list*
%AMRoundRect*
0 Rectangle with rounded corners*
0 $1 Rounding radius*
0 $2 $3 $4 $5 $6 $7 $8 $9 X,Y pos of 4 corners*
0 Add a 4 corners polygon primitive as box body*
4,1,4,$2,$3,$4,$5,$6,$7,$8,$9,$2,$3,0*
0 Add four circle primitives for the rounded corners*
1,1,$1+$1,$2,$3*
1,1,$1+$1,$4,$5*
1,1,$1+$1,$6,$7*
1,1,$1+$1,$8,$9*
0 Add four rect primitives between the rounded corners*
20,1,$1+$1,$2,$3,$4,$5,0*
20,1,$1+$1,$4,$5,$6,$7,0*
20,1,$1+$1,$6,$7,$8,$9,0*
20,1,$1+$1,$8,$9,$2,$3,0*%
G04 Aperture macros list end*
%ADD10RoundRect,0.140000X0.170000X-0.140000X0.170000X0.140000X-0.170000X0.140000X-0.170000X-0.140000X0*%
%ADD11RoundRect,0.135000X0.135000X0.185000X-0.135000X0.185000X-0.135000X-0.185000X0.135000X-0.185000X0*%
%ADD12RoundRect,0.225000X0.225000X0.250000X-0.225000X0.250000X-0.225000X-0.250000X0.225000X-0.250000X0*%
%ADD13RoundRect,0.140000X0.140000X0.170000X-0.140000X0.170000X-0.140000X-0.170000X0.140000X-0.170000X0*%
%ADD14RoundRect,0.140000X-0.170000X0.140000X-0.170000X-0.140000X0.170000X-0.140000X0.170000X0.140000X0*%
%ADD15RoundRect,0.250000X0.450000X0.350000X-0.450000X0.350000X-0.450000X-0.350000X0.450000X-0.350000X0*%
%ADD16RoundRect,0.218750X0.218750X0.256250X-0.218750X0.256250X-0.218750X-0.256250X0.218750X-0.256250X0*%
%ADD17RoundRect,0.135000X0.185000X-0.135000X0.185000X0.135000X-0.185000X0.135000X-0.185000X-0.135000X0*%
%ADD18RoundRect,0.250000X-0.450000X-0.350000X0.450000X-0.350000X0.450000X0.350000X-0.450000X0.350000X0*%
%ADD19RoundRect,0.140000X-0.140000X-0.170000X0.140000X-0.170000X0.140000X0.170000X-0.140000X0.170000X0*%
%ADD20RoundRect,0.140000X0.021213X-0.219203X0.219203X-0.021213X-0.021213X0.219203X-0.219203X0.021213X0*%
%ADD21RoundRect,0.135000X-0.185000X0.135000X-0.185000X-0.135000X0.185000X-0.135000X0.185000X0.135000X0*%
%ADD22RoundRect,0.135000X-0.135000X-0.185000X0.135000X-0.185000X0.135000X0.185000X-0.135000X0.185000X0*%
%ADD23R,1.700000X1.700000*%
%ADD24C,1.700000*%
%ADD25R,0.812800X0.254000*%
%ADD26R,0.254000X0.812800*%
%ADD27R,6.096000X6.096000*%
%ADD28RoundRect,0.250000X-0.250000X-0.475000X0.250000X-0.475000X0.250000X0.475000X-0.250000X0.475000X0*%
%ADD29RoundRect,0.200000X-0.800000X0.200000X-0.800000X-0.200000X0.800000X-0.200000X0.800000X0.200000X0*%
%ADD30RoundRect,0.050000X-0.387500X-0.050000X0.387500X-0.050000X0.387500X0.050000X-0.387500X0.050000X0*%
%ADD31RoundRect,0.050000X-0.050000X-0.387500X0.050000X-0.387500X0.050000X0.387500X-0.050000X0.387500X0*%
%ADD32R,3.200000X3.200000*%
%ADD33C,0.650000*%
%ADD34R,0.600000X1.450000*%
%ADD35R,0.300000X1.450000*%
%ADD36O,1.000000X2.100000*%
%ADD37O,1.000000X1.600000*%
%ADD38RoundRect,0.218750X-0.256250X0.218750X-0.256250X-0.218750X0.256250X-0.218750X0.256250X0.218750X0*%
%ADD39C,3.250000*%
%ADD40RoundRect,0.250500X0.499500X0.499500X-0.499500X0.499500X-0.499500X-0.499500X0.499500X-0.499500X0*%
%ADD41C,1.500000*%
%ADD42C,2.500000*%
%ADD43RoundRect,0.150000X0.150000X-0.587500X0.150000X0.587500X-0.150000X0.587500X-0.150000X-0.587500X0*%
%ADD44RoundRect,0.062500X-0.387500X-0.062500X0.387500X-0.062500X0.387500X0.062500X-0.387500X0.062500X0*%
%ADD45R,0.200000X1.600000*%
G04 APERTURE END LIST*
D10*
%TO.C,C6*%
X154425000Y-104030000D03*
X154425000Y-103070000D03*
%TD*%
D11*
%TO.C,R10*%
X142520000Y-107500000D03*
X141500000Y-107500000D03*
%TD*%
D10*
%TO.C,C5*%
X157075000Y-107230000D03*
X157075000Y-106270000D03*
%TD*%
D12*
%TO.C,C13*%
X150740000Y-90780000D03*
X149190000Y-90780000D03*
%TD*%
D13*
%TO.C,C4*%
X149005000Y-108000000D03*
X148045000Y-108000000D03*
%TD*%
D14*
%TO.C,C2*%
X155175000Y-116750000D03*
X155175000Y-117710000D03*
%TD*%
D15*
%TO.C,Y1*%
X153625000Y-118380000D03*
X151425000Y-118380000D03*
X151425000Y-120080000D03*
X153625000Y-120080000D03*
%TD*%
D16*
%TO.C,FB2*%
X139600000Y-117400000D03*
X138025000Y-117400000D03*
%TD*%
D17*
%TO.C,R12*%
X142000000Y-116020000D03*
X142000000Y-115000000D03*
%TD*%
D18*
%TO.C,Y2*%
X123800000Y-108100000D03*
X126000000Y-108100000D03*
X126000000Y-106400000D03*
X123800000Y-106400000D03*
%TD*%
D19*
%TO.C,C33*%
X129540000Y-119000000D03*
X130500000Y-119000000D03*
%TD*%
D13*
%TO.C,C20*%
X130460000Y-121000000D03*
X129500000Y-121000000D03*
%TD*%
D20*
%TO.C,C1*%
X158235589Y-106864411D03*
X158914411Y-106185589D03*
%TD*%
D21*
%TO.C,R15*%
X135500000Y-105000000D03*
X135500000Y-106020000D03*
%TD*%
D10*
%TO.C,C7*%
X155385000Y-103290000D03*
X155385000Y-102330000D03*
%TD*%
D22*
%TO.C,R7*%
X148585000Y-101970000D03*
X149605000Y-101970000D03*
%TD*%
D23*
%TO.C,J4*%
X148190000Y-131250000D03*
D24*
X150730000Y-131250000D03*
X153270000Y-131250000D03*
X155810000Y-131250000D03*
%TD*%
D10*
%TO.C,C19*%
X126500000Y-111460000D03*
X126500000Y-110500000D03*
%TD*%
D14*
%TO.C,C15*%
X149875000Y-118920000D03*
X149875000Y-119880000D03*
%TD*%
D13*
%TO.C,C29*%
X128500000Y-114650000D03*
X127540000Y-114650000D03*
%TD*%
D22*
%TO.C,R8*%
X126490000Y-109500000D03*
X127510000Y-109500000D03*
%TD*%
%TO.C,R6*%
X156390000Y-99250000D03*
X157410000Y-99250000D03*
%TD*%
D25*
%TO.C,U3*%
X131605800Y-107750000D03*
X131605800Y-108249999D03*
X131605800Y-108750000D03*
X131605800Y-109249999D03*
X131605800Y-109750001D03*
X131605800Y-110250000D03*
X131605800Y-110749999D03*
X131605800Y-111250000D03*
X131605800Y-111750000D03*
X131605800Y-112250001D03*
X131605800Y-112750000D03*
X131605800Y-113249999D03*
X131605800Y-113750001D03*
X131605800Y-114250000D03*
X131605800Y-114750001D03*
X131605800Y-115250000D03*
D26*
X132250000Y-115894200D03*
X132749999Y-115894200D03*
X133250000Y-115894200D03*
X133749999Y-115894200D03*
X134250001Y-115894200D03*
X134750000Y-115894200D03*
X135249999Y-115894200D03*
X135750000Y-115894200D03*
X136250000Y-115894200D03*
X136750001Y-115894200D03*
X137250000Y-115894200D03*
X137749999Y-115894200D03*
X138250001Y-115894200D03*
X138750000Y-115894200D03*
X139250001Y-115894200D03*
X139750000Y-115894200D03*
D25*
X140394200Y-115250000D03*
X140394200Y-114750001D03*
X140394200Y-114250000D03*
X140394200Y-113750001D03*
X140394200Y-113249999D03*
X140394200Y-112750000D03*
X140394200Y-112250001D03*
X140394200Y-111750000D03*
X140394200Y-111250000D03*
X140394200Y-110749999D03*
X140394200Y-110250000D03*
X140394200Y-109750001D03*
X140394200Y-109249999D03*
X140394200Y-108750000D03*
X140394200Y-108249999D03*
X140394200Y-107750000D03*
D26*
X139750000Y-107105800D03*
X139250001Y-107105800D03*
X138750000Y-107105800D03*
X138250001Y-107105800D03*
X137749999Y-107105800D03*
X137250000Y-107105800D03*
X136750001Y-107105800D03*
X136250000Y-107105800D03*
X135750000Y-107105800D03*
X135249999Y-107105800D03*
X134750000Y-107105800D03*
X134250001Y-107105800D03*
X133749999Y-107105800D03*
X133250000Y-107105800D03*
X132749999Y-107105800D03*
X132250000Y-107105800D03*
D27*
X136000000Y-111500000D03*
%TD*%
D10*
%TO.C,C11*%
X156100000Y-106900000D03*
X156100000Y-105940000D03*
%TD*%
D28*
%TO.C,C37*%
X143800000Y-113400000D03*
X145700000Y-113400000D03*
%TD*%
D14*
%TO.C,C10*%
X156215000Y-116760000D03*
X156215000Y-117720000D03*
%TD*%
D10*
%TO.C,C36*%
X133500000Y-105960000D03*
X133500000Y-105000000D03*
%TD*%
D29*
%TO.C,SW1*%
X156425000Y-93750000D03*
X156425000Y-97950000D03*
%TD*%
D16*
%TO.C,FB3*%
X139500000Y-120500000D03*
X137925000Y-120500000D03*
%TD*%
D14*
%TO.C,C38*%
X137900000Y-121800000D03*
X137900000Y-122760000D03*
%TD*%
D11*
%TO.C,R5*%
X153825000Y-116910000D03*
X152805000Y-116910000D03*
%TD*%
D14*
%TO.C,C23*%
X135000000Y-117040000D03*
X135000000Y-118000000D03*
%TD*%
D10*
%TO.C,C35*%
X132000000Y-106000000D03*
X132000000Y-105040000D03*
%TD*%
D12*
%TO.C,C14*%
X151750000Y-96550000D03*
X150200000Y-96550000D03*
%TD*%
D11*
%TO.C,R13*%
X129250000Y-112750000D03*
X128230000Y-112750000D03*
%TD*%
D23*
%TO.C,J2*%
X144500000Y-116380000D03*
D24*
X144500000Y-118920000D03*
X144500000Y-121460000D03*
X144500000Y-124000000D03*
X144500000Y-126540000D03*
X144500000Y-129080000D03*
X144500000Y-131620000D03*
%TD*%
D22*
%TO.C,R9*%
X139990000Y-105500000D03*
X141010000Y-105500000D03*
%TD*%
D13*
%TO.C,C27*%
X128500000Y-117000000D03*
X127540000Y-117000000D03*
%TD*%
D16*
%TO.C,FB1*%
X139575000Y-118900000D03*
X138000000Y-118900000D03*
%TD*%
D21*
%TO.C,R2*%
X154765000Y-90410000D03*
X154765000Y-91430000D03*
%TD*%
D19*
%TO.C,C18*%
X127540000Y-104800000D03*
X128500000Y-104800000D03*
%TD*%
D21*
%TO.C,R3*%
X154050000Y-105580000D03*
X154050000Y-106600000D03*
%TD*%
D30*
%TO.C,U1*%
X149937500Y-109000000D03*
X149937500Y-109400000D03*
X149937500Y-109800000D03*
X149937500Y-110200000D03*
X149937500Y-110600000D03*
X149937500Y-111000000D03*
X149937500Y-111400000D03*
X149937500Y-111800000D03*
X149937500Y-112200000D03*
X149937500Y-112600000D03*
X149937500Y-113000000D03*
X149937500Y-113400000D03*
X149937500Y-113800000D03*
X149937500Y-114200000D03*
D31*
X150775000Y-115037500D03*
X151175000Y-115037500D03*
X151575000Y-115037500D03*
X151975000Y-115037500D03*
X152375000Y-115037500D03*
X152775000Y-115037500D03*
X153175000Y-115037500D03*
X153575000Y-115037500D03*
X153975000Y-115037500D03*
X154375000Y-115037500D03*
X154775000Y-115037500D03*
X155175000Y-115037500D03*
X155575000Y-115037500D03*
X155975000Y-115037500D03*
D30*
X156812500Y-114200000D03*
X156812500Y-113800000D03*
X156812500Y-113400000D03*
X156812500Y-113000000D03*
X156812500Y-112600000D03*
X156812500Y-112200000D03*
X156812500Y-111800000D03*
X156812500Y-111400000D03*
X156812500Y-111000000D03*
X156812500Y-110600000D03*
X156812500Y-110200000D03*
X156812500Y-109800000D03*
X156812500Y-109400000D03*
X156812500Y-109000000D03*
D31*
X155975000Y-108162500D03*
X155575000Y-108162500D03*
X155175000Y-108162500D03*
X154775000Y-108162500D03*
X154375000Y-108162500D03*
X153975000Y-108162500D03*
X153575000Y-108162500D03*
X153175000Y-108162500D03*
X152775000Y-108162500D03*
X152375000Y-108162500D03*
X151975000Y-108162500D03*
X151575000Y-108162500D03*
X151175000Y-108162500D03*
X150775000Y-108162500D03*
D32*
X153375000Y-111600000D03*
%TD*%
D33*
%TO.C,J1*%
X156265000Y-87200000D03*
X150485000Y-87200000D03*
D34*
X156625000Y-88645000D03*
X155825000Y-88645000D03*
D35*
X154625000Y-88645000D03*
X153625000Y-88645000D03*
X153125000Y-88645000D03*
X152125000Y-88645000D03*
D34*
X150925000Y-88645000D03*
X150125000Y-88645000D03*
X150125000Y-88645000D03*
X150925000Y-88645000D03*
D35*
X151625000Y-88645000D03*
X152625000Y-88645000D03*
X154125000Y-88645000D03*
X155125000Y-88645000D03*
D34*
X155825000Y-88645000D03*
X156625000Y-88645000D03*
D36*
X157695000Y-87730000D03*
D37*
X157695000Y-83550000D03*
D36*
X149055000Y-87730000D03*
D37*
X149055000Y-83550000D03*
%TD*%
D10*
%TO.C,C16*%
X155300000Y-119580000D03*
X155300000Y-118620000D03*
%TD*%
D19*
%TO.C,C9*%
X158915000Y-112580000D03*
X159875000Y-112580000D03*
%TD*%
%TO.C,C32*%
X129500000Y-118000000D03*
X130460000Y-118000000D03*
%TD*%
D10*
%TO.C,C40*%
X131000000Y-106000000D03*
X131000000Y-105040000D03*
%TD*%
D21*
%TO.C,R1*%
X152025000Y-90480000D03*
X152025000Y-91500000D03*
%TD*%
D19*
%TO.C,C31*%
X129500000Y-117000000D03*
X130460000Y-117000000D03*
%TD*%
D10*
%TO.C,C12*%
X153400000Y-104025000D03*
X153400000Y-103065000D03*
%TD*%
D19*
%TO.C,C30*%
X129500000Y-116000000D03*
X130460000Y-116000000D03*
%TD*%
D38*
%TO.C,FB4*%
X133800000Y-118000000D03*
X133800000Y-119575000D03*
%TD*%
D19*
%TO.C,C8*%
X157925000Y-108175000D03*
X158885000Y-108175000D03*
%TD*%
D21*
%TO.C,R4*%
X155100000Y-105580000D03*
X155100000Y-106600000D03*
%TD*%
D13*
%TO.C,C34*%
X130500000Y-110500000D03*
X129540000Y-110500000D03*
%TD*%
D39*
%TO.C,J6*%
X140355000Y-93400000D03*
X128925000Y-93400000D03*
D40*
X139080000Y-99760000D03*
D41*
X137820000Y-102300000D03*
X136540000Y-99760000D03*
X135280000Y-102300000D03*
X134000000Y-99760000D03*
X132740000Y-102300000D03*
X131460000Y-99760000D03*
X130200000Y-102300000D03*
X141265000Y-88500000D03*
X138725000Y-88500000D03*
X130555000Y-88500000D03*
X128015000Y-88500000D03*
D42*
X142385000Y-96450000D03*
X126895000Y-96450000D03*
%TD*%
D13*
%TO.C,C24*%
X128500000Y-120000000D03*
X127540000Y-120000000D03*
%TD*%
%TO.C,C17*%
X151505000Y-101950000D03*
X150545000Y-101950000D03*
%TD*%
D11*
%TO.C,R11*%
X130520000Y-122000000D03*
X129500000Y-122000000D03*
%TD*%
D13*
%TO.C,C25*%
X128500000Y-119000000D03*
X127540000Y-119000000D03*
%TD*%
D14*
%TO.C,C22*%
X136000000Y-117040000D03*
X136000000Y-118000000D03*
%TD*%
D11*
%TO.C,R16*%
X130510000Y-109500000D03*
X129490000Y-109500000D03*
%TD*%
D43*
%TO.C,U2*%
X149975000Y-94587500D03*
X151875000Y-94587500D03*
X150925000Y-92712500D03*
%TD*%
D13*
%TO.C,C21*%
X130460000Y-120000000D03*
X129500000Y-120000000D03*
%TD*%
%TO.C,C3*%
X148405000Y-112830000D03*
X147445000Y-112830000D03*
%TD*%
D44*
%TO.C,U4*%
X148750000Y-103175000D03*
X148750000Y-103675000D03*
X148750000Y-104175000D03*
X148750000Y-104675000D03*
X151600000Y-104675000D03*
X151600000Y-104175000D03*
X151600000Y-103675000D03*
X151600000Y-103175000D03*
D45*
X150175000Y-103925000D03*
%TD*%
D13*
%TO.C,C26*%
X128500000Y-118000000D03*
X127540000Y-118000000D03*
%TD*%
D10*
%TO.C,C39*%
X130000000Y-106000000D03*
X130000000Y-105040000D03*
%TD*%
D13*
%TO.C,C28*%
X128500000Y-116000000D03*
X127540000Y-116000000D03*
%TD*%
D23*
%TO.C,J3*%
X162265000Y-83470000D03*
D24*
X162265000Y-86010000D03*
X162265000Y-88550000D03*
X162265000Y-91090000D03*
X162265000Y-93630000D03*
X162265000Y-96170000D03*
X162265000Y-98710000D03*
X162265000Y-101250000D03*
X162265000Y-103790000D03*
X162265000Y-106330000D03*
X162265000Y-108870000D03*
X162265000Y-111410000D03*
X162265000Y-113950000D03*
X162265000Y-116490000D03*
X162265000Y-119030000D03*
X162265000Y-121570000D03*
X162265000Y-124110000D03*
X162265000Y-126650000D03*
X162265000Y-129190000D03*
X162265000Y-131730000D03*
%TD*%
M02*
