M48
; DRILL file {KiCad 9.0.7} date 2026-01-21T12:21:26+0530
; FORMAT={-:-/ absolute / metric / decimal}
; #@! TF.CreationDate,2026-01-21T12:21:26+05:30
; #@! TF.GenerationSoftware,Kicad,Pcbnew,9.0.7
; #@! TF.FileFunction,Plated,1,2,PTH
FMAT,2
METRIC
; #@! TA.AperFunction,Plated,PTH,ViaDrill
T1C0.300
; #@! TA.AperFunction,Plated,PTH,ComponentDrill
T2C0.600
; #@! TA.AperFunction,Plated,PTH,ComponentDrill
T3C0.890
; #@! TA.AperFunction,Plated,PTH,ComponentDrill
T4C1.000
; #@! TA.AperFunction,Plated,PTH,ComponentDrill
T5C1.020
; #@! TA.AperFunction,Plated,PTH,ComponentDrill
T6C1.630
%
G90
G05
T1
X123.8Y-105.0
X125.675Y-109.6
X126.8Y-113.4
X127.49Y-110.76
X127.54Y-103.79
X128.5Y-109.5
X128.5Y-121.0
X129.238Y-111.29
X129.4Y-107.6
X129.8Y-113.6
X130.0Y-104.2
X130.25Y-108.25
X130.736Y-113.63
X130.793Y-112.832
X131.0Y-115.8
X131.5Y-117.0
X131.6Y-120.0
X132.45Y-117.0
X132.8Y-106.0
X133.2Y-120.6
X133.211Y-105.191
X133.25Y-117.0
X135.017Y-105.2
X135.4Y-119.2
X136.0Y-113.99
X136.0Y-118.65
X137.0Y-120.5
X139.2Y-107.969
X139.25Y-106.366
X140.394Y-107.623
X140.75Y-104.5
X141.395Y-116.395
X141.4Y-111.4
X141.564Y-105.5
X141.564Y-108.923
X142.4Y-106.75
X142.487Y-110.557
X142.544Y-112.357
X142.587Y-118.587
X143.75Y-106.0
X143.951Y-111.049
X144.6Y-96.4
X144.75Y-107.75
X145.5Y-109.0
X145.879Y-107.621
X146.0Y-110.4
X146.733Y-112.8
X147.8Y-114.2
X148.825Y-106.75
X148.925Y-94.15
X148.925Y-95.05
X148.925Y-96.05
X149.0Y-114.0
X149.025Y-100.75
X149.5Y-117.95
X149.579Y-104.896
X150.0Y-114.438
X150.025Y-107.85
X150.69Y-101.45
X150.825Y-98.85
X151.0Y-114.0
X151.425Y-111.55
X151.525Y-109.95
X151.535Y-117.289
X152.388Y-114.215
X152.59Y-103.208
X152.825Y-93.85
X152.825Y-94.75
X152.825Y-95.75
X153.375Y-111.6
X153.425Y-109.75
X153.6Y-122.0
X153.625Y-101.65
X153.775Y-107.364
X153.824Y-113.7
X153.999Y-104.782
X154.487Y-102.487
X154.608Y-113.885
X154.764Y-109.1
X155.364Y-110.05
X155.364Y-111.25
X155.364Y-112.45
X155.645Y-101.55
X155.872Y-98.85
X155.876Y-113.489
X156.0Y-119.6
X156.7Y-89.7
X156.8Y-84.7
X156.825Y-116.75
X156.9Y-104.4
X157.7Y-103.2
X157.725Y-116.45
X157.885Y-106.153
X158.325Y-105.1
X158.373Y-109.193
X159.062Y-109.6
X159.5Y-83.6
X160.415Y-112.706
X161.595Y-115.3
X163.0Y-115.2
T3
X130.2Y-102.3
X131.46Y-99.76
X132.74Y-102.3
X134.0Y-99.76
X135.28Y-102.3
X136.54Y-99.76
X137.82Y-102.3
X139.08Y-99.76
T4
X144.5Y-116.38
X144.5Y-118.92
X144.5Y-121.46
X144.5Y-124.0
X144.5Y-126.54
X144.5Y-129.08
X144.5Y-131.62
X148.19Y-131.25
X150.73Y-131.25
X153.27Y-131.25
X155.81Y-131.25
X162.265Y-83.47
X162.265Y-86.01
X162.265Y-88.55
X162.265Y-91.09
X162.265Y-93.63
X162.265Y-96.17
X162.265Y-98.71
X162.265Y-101.25
X162.265Y-103.79
X162.265Y-106.33
X162.265Y-108.87
X162.265Y-111.41
X162.265Y-113.95
X162.265Y-116.49
X162.265Y-119.03
X162.265Y-121.57
X162.265Y-124.11
X162.265Y-126.65
X162.265Y-129.19
X162.265Y-131.73
T5
X128.015Y-88.5
X130.555Y-88.5
X138.725Y-88.5
X141.265Y-88.5
T6
X126.895Y-96.45
X142.385Y-96.45
T2
G00X149.055Y-83.85
M15
G01X149.055Y-83.25
M16
G05
G00X149.055Y-88.28
M15
G01X149.055Y-87.18
M16
G05
G00X157.695Y-83.85
M15
G01X157.695Y-83.25
M16
G05
G00X157.695Y-88.28
M15
G01X157.695Y-87.18
M16
G05
M30
