%TF.GenerationSoftware,KiCad,Pcbnew,9.0.7*%
%TF.CreationDate,2026-01-21T12:23:45+05:30*%
%TF.ProjectId,ntp-devboard,6e74702d-6465-4766-926f-6172642e6b69,rev?*%
%TF.SameCoordinates,Original*%
%TF.FileFunction,Soldermask,Bot*%
%TF.FilePolarity,Negative*%
%FSLAX46Y46*%
G04 Gerber Fmt 4.6, Leading zero omitted, Abs format (unit mm)*
G04 Created by KiCad (PCBNEW 9.0.7) date 2026-01-21 12:23:45*
%MOMM*%
%LPD*%
G01*
G04 APERTURE LIST*
G04 Aperture macros list*
%AMRoundRect*
0 Rectangle with rounded corners*
0 $1 Rounding radius*
0 $2 $3 $4 $5 $6 $7 $8 $9 X,Y pos of 4 corners*
0 Add a 4 corners polygon primitive as box body*
4,1,4,$2,$3,$4,$5,$6,$7,$8,$9,$2,$3,0*
0 Add four circle primitives for the rounded corners*
1,1,$1+$1,$2,$3*
1,1,$1+$1,$4,$5*
1,1,$1+$1,$6,$7*
1,1,$1+$1,$8,$9*
0 Add four rect primitives between the rounded corners*
20,1,$1+$1,$2,$3,$4,$5,0*
20,1,$1+$1,$4,$5,$6,$7,0*
20,1,$1+$1,$6,$7,$8,$9,0*
20,1,$1+$1,$8,$9,$2,$3,0*%
G04 Aperture macros list end*
%ADD10R,1.700000X1.700000*%
%ADD11C,1.700000*%
%ADD12C,0.650000*%
%ADD13O,1.000000X2.100000*%
%ADD14O,1.000000X1.600000*%
%ADD15C,3.250000*%
%ADD16RoundRect,0.250500X0.499500X0.499500X-0.499500X0.499500X-0.499500X-0.499500X0.499500X-0.499500X0*%
%ADD17C,1.500000*%
%ADD18C,2.500000*%
G04 APERTURE END LIST*
D10*
%TO.C,J4*%
X148190000Y-131250000D03*
D11*
X150730000Y-131250000D03*
X153270000Y-131250000D03*
X155810000Y-131250000D03*
%TD*%
D10*
%TO.C,J2*%
X144500000Y-116380000D03*
D11*
X144500000Y-118920000D03*
X144500000Y-121460000D03*
X144500000Y-124000000D03*
X144500000Y-126540000D03*
X144500000Y-129080000D03*
X144500000Y-131620000D03*
%TD*%
D12*
%TO.C,J1*%
X156265000Y-87200000D03*
X150485000Y-87200000D03*
D13*
X157695000Y-87730000D03*
D14*
X157695000Y-83550000D03*
D13*
X149055000Y-87730000D03*
D14*
X149055000Y-83550000D03*
%TD*%
D15*
%TO.C,J6*%
X140355000Y-93400000D03*
X128925000Y-93400000D03*
D16*
X139080000Y-99760000D03*
D17*
X137820000Y-102300000D03*
X136540000Y-99760000D03*
X135280000Y-102300000D03*
X134000000Y-99760000D03*
X132740000Y-102300000D03*
X131460000Y-99760000D03*
X130200000Y-102300000D03*
X141265000Y-88500000D03*
X138725000Y-88500000D03*
X130555000Y-88500000D03*
X128015000Y-88500000D03*
D18*
X142385000Y-96450000D03*
X126895000Y-96450000D03*
%TD*%
D10*
%TO.C,J3*%
X162265000Y-83470000D03*
D11*
X162265000Y-86010000D03*
X162265000Y-88550000D03*
X162265000Y-91090000D03*
X162265000Y-93630000D03*
X162265000Y-96170000D03*
X162265000Y-98710000D03*
X162265000Y-101250000D03*
X162265000Y-103790000D03*
X162265000Y-106330000D03*
X162265000Y-108870000D03*
X162265000Y-111410000D03*
X162265000Y-113950000D03*
X162265000Y-116490000D03*
X162265000Y-119030000D03*
X162265000Y-121570000D03*
X162265000Y-124110000D03*
X162265000Y-126650000D03*
X162265000Y-129190000D03*
X162265000Y-131730000D03*
%TD*%
M02*
