%TF.GenerationSoftware,KiCad,Pcbnew,9.0.7*%
%TF.CreationDate,2026-01-21T12:23:44+05:30*%
%TF.ProjectId,ntp-devboard,6e74702d-6465-4766-926f-6172642e6b69,rev?*%
%TF.SameCoordinates,Original*%
%TF.FileFunction,Legend,Top*%
%TF.FilePolarity,Positive*%
%FSLAX46Y46*%
G04 Gerber Fmt 4.6, Leading zero omitted, Abs format (unit mm)*
G04 Created by KiCad (PCBNEW 9.0.7) date 2026-01-21 12:23:44*
%MOMM*%
%LPD*%
G01*
G04 APERTURE LIST*
%ADD10C,0.100000*%
%ADD11C,0.150000*%
%ADD12C,0.120000*%
%ADD13C,0.152400*%
%ADD14C,0.000000*%
G04 APERTURE END LIST*
D10*
G36*
X147301222Y-101730024D02*
G01*
X147206029Y-101641791D01*
X147255798Y-101577380D01*
X147293529Y-101503916D01*
X147317208Y-101425194D01*
X147324975Y-101346379D01*
X147319982Y-101281110D01*
X147306272Y-101229262D01*
X147285102Y-101188171D01*
X147254819Y-101155105D01*
X147219273Y-101135942D01*
X147176598Y-101129370D01*
X147148924Y-101132831D01*
X147124478Y-101142988D01*
X147102409Y-101160205D01*
X147074020Y-101194470D01*
X147047088Y-101240683D01*
X147000193Y-101350593D01*
X146951222Y-101471004D01*
X146922206Y-101529123D01*
X146889612Y-101580914D01*
X146850998Y-101626189D01*
X146806325Y-101661453D01*
X146772871Y-101678173D01*
X146734265Y-101688576D01*
X146689394Y-101692227D01*
X146645510Y-101688587D01*
X146606136Y-101678024D01*
X146570448Y-101660720D01*
X146522930Y-101624417D01*
X146483620Y-101578105D01*
X146453003Y-101524799D01*
X146431107Y-101466791D01*
X146417842Y-101406827D01*
X146413583Y-101350593D01*
X146417731Y-101287891D01*
X146430082Y-101227417D01*
X146450708Y-101168632D01*
X146479099Y-101113261D01*
X146514238Y-101063971D01*
X146556404Y-101020193D01*
X146641828Y-101112578D01*
X146592706Y-101171622D01*
X146563426Y-101225296D01*
X146546843Y-101283039D01*
X146541017Y-101350593D01*
X146545313Y-101396531D01*
X146558541Y-101443710D01*
X146580122Y-101487342D01*
X146608916Y-101522845D01*
X146632428Y-101540870D01*
X146658042Y-101551443D01*
X146686585Y-101555024D01*
X146715238Y-101551561D01*
X146740645Y-101541407D01*
X146763644Y-101524249D01*
X146793218Y-101489746D01*
X146821041Y-101443039D01*
X146870012Y-101332397D01*
X146920448Y-101212718D01*
X146949198Y-101155021D01*
X146981325Y-101102808D01*
X147019286Y-101056929D01*
X147063208Y-101021598D01*
X147096160Y-101004804D01*
X147133625Y-100994438D01*
X147176598Y-100990823D01*
X147237061Y-100996806D01*
X147289590Y-101014039D01*
X147335820Y-101042306D01*
X147376816Y-101082536D01*
X147408027Y-101129788D01*
X147431621Y-101187934D01*
X147446892Y-101259221D01*
X147452409Y-101346379D01*
X147447539Y-101420176D01*
X147433078Y-101490910D01*
X147408995Y-101559237D01*
X147376893Y-101624481D01*
X147340936Y-101681127D01*
X147301222Y-101730024D01*
G37*
G36*
X147430000Y-100567062D02*
G01*
X146559213Y-100567062D01*
X146559213Y-100862473D01*
X146435992Y-100862473D01*
X146435992Y-100134446D01*
X146559213Y-100134446D01*
X146559213Y-100429858D01*
X147430000Y-100429858D01*
X147430000Y-100567062D01*
G37*
G36*
X147430000Y-99402695D02*
G01*
X147035181Y-99664523D01*
X147035181Y-99836714D01*
X147430000Y-99836714D01*
X147430000Y-99973918D01*
X146435992Y-99973918D01*
X146435992Y-99619705D01*
X146559213Y-99619705D01*
X146559213Y-99836714D01*
X146912021Y-99836714D01*
X146912021Y-99619705D01*
X146905681Y-99555310D01*
X146888614Y-99507682D01*
X146862318Y-99472732D01*
X146826688Y-99446564D01*
X146785030Y-99430660D01*
X146735617Y-99425104D01*
X146679686Y-99430969D01*
X146637120Y-99447001D01*
X146604746Y-99472199D01*
X146580766Y-99507438D01*
X146565059Y-99555300D01*
X146559213Y-99619705D01*
X146435992Y-99619705D01*
X146441869Y-99533061D01*
X146457896Y-99464784D01*
X146482324Y-99411323D01*
X146514394Y-99369844D01*
X146555809Y-99336372D01*
X146605315Y-99311803D01*
X146664537Y-99296252D01*
X146735617Y-99290710D01*
X146810286Y-99297486D01*
X146872969Y-99316660D01*
X146926004Y-99347435D01*
X146959519Y-99378220D01*
X146987256Y-99416251D01*
X147009342Y-99462635D01*
X147025411Y-99518893D01*
X147416017Y-99252913D01*
X147430000Y-99252913D01*
X147430000Y-99402695D01*
G37*
G36*
X147430000Y-98523970D02*
G01*
X147308916Y-98551936D01*
X147191985Y-98578558D01*
X147191985Y-98948159D01*
X147308916Y-98974781D01*
X147430000Y-99002747D01*
X147430000Y-99144164D01*
X147120155Y-99069527D01*
X146862318Y-98997130D01*
X146697231Y-98943093D01*
X146555947Y-98889361D01*
X146435992Y-98836174D01*
X146435992Y-98763328D01*
X146571791Y-98763328D01*
X146679579Y-98803541D01*
X146801441Y-98843135D01*
X147068825Y-98917323D01*
X147068825Y-98609333D01*
X146801441Y-98683522D01*
X146679579Y-98723115D01*
X146571791Y-98763328D01*
X146435992Y-98763328D01*
X146435992Y-98690544D01*
X146556025Y-98636642D01*
X146697308Y-98582649D01*
X146862318Y-98528855D01*
X147120151Y-98456967D01*
X147430000Y-98382554D01*
X147430000Y-98523970D01*
G37*
G36*
X147430000Y-97964410D02*
G01*
X146559213Y-97964410D01*
X146559213Y-98259822D01*
X146435992Y-98259822D01*
X146435992Y-97531795D01*
X146559213Y-97531795D01*
X146559213Y-97827206D01*
X147430000Y-97827206D01*
X147430000Y-97964410D01*
G37*
G36*
X146435992Y-96811217D02*
G01*
X146435992Y-96671266D01*
X147042203Y-96671266D01*
X147119337Y-96675245D01*
X147183813Y-96686319D01*
X147237536Y-96703445D01*
X147288234Y-96728050D01*
X147329828Y-96756314D01*
X147363504Y-96788136D01*
X147403996Y-96843709D01*
X147430671Y-96903663D01*
X147446009Y-96966819D01*
X147451004Y-97028227D01*
X147446010Y-97089643D01*
X147430671Y-97152852D01*
X147403996Y-97212807D01*
X147363504Y-97268379D01*
X147329834Y-97300169D01*
X147288241Y-97328434D01*
X147237536Y-97353070D01*
X147183813Y-97370196D01*
X147119337Y-97381270D01*
X147042203Y-97385249D01*
X146435992Y-97385249D01*
X146435992Y-97245237D01*
X147042203Y-97245237D01*
X147106215Y-97241430D01*
X147157499Y-97231011D01*
X147198335Y-97215134D01*
X147235443Y-97192170D01*
X147264241Y-97165627D01*
X147285835Y-97135327D01*
X147306799Y-97083743D01*
X147313801Y-97028227D01*
X147306799Y-96972711D01*
X147285835Y-96921127D01*
X147264241Y-96890827D01*
X147235443Y-96864284D01*
X147198335Y-96841320D01*
X147157499Y-96825443D01*
X147106215Y-96815024D01*
X147042203Y-96811217D01*
X146435992Y-96811217D01*
G37*
G36*
X146435992Y-96548473D02*
G01*
X146435992Y-96393073D01*
X146552180Y-96330475D01*
X146672602Y-96270647D01*
X146795726Y-96214279D01*
X146923196Y-96160676D01*
X146795725Y-96107134D01*
X146672602Y-96050828D01*
X146552180Y-95990939D01*
X146435992Y-95928279D01*
X146435992Y-95772880D01*
X147430000Y-95772880D01*
X147430000Y-95910083D01*
X146661428Y-95910083D01*
X146859509Y-96010223D01*
X147066017Y-96103279D01*
X147066017Y-96218073D01*
X146859509Y-96311191D01*
X146661428Y-96411270D01*
X147430000Y-96411270D01*
X147430000Y-96548473D01*
X146435992Y-96548473D01*
G37*
G36*
X147430000Y-94732222D02*
G01*
X147306779Y-94732222D01*
X147306779Y-94474607D01*
X146658620Y-94474607D01*
X146698082Y-94538356D01*
X146729820Y-94608116D01*
X146753813Y-94684595D01*
X146626379Y-94741992D01*
X146600663Y-94659439D01*
X146557808Y-94574685D01*
X146521055Y-94521967D01*
X146480495Y-94478153D01*
X146435992Y-94442367D01*
X146435992Y-94334595D01*
X147306779Y-94334595D01*
X147306779Y-94097984D01*
X147430000Y-94097984D01*
X147430000Y-94732222D01*
G37*
G36*
X146435992Y-93046092D02*
G01*
X146435992Y-92876709D01*
X147191985Y-92472121D01*
X146435992Y-92472121D01*
X146435992Y-92334918D01*
X147430000Y-92334918D01*
X147430000Y-92498682D01*
X146671198Y-92908888D01*
X147430000Y-92908888D01*
X147430000Y-93046092D01*
X146435992Y-93046092D01*
G37*
G36*
X147430000Y-91891556D02*
G01*
X146559213Y-91891556D01*
X146559213Y-92186967D01*
X146435992Y-92186967D01*
X146435992Y-91458941D01*
X146559213Y-91458941D01*
X146559213Y-91754352D01*
X147430000Y-91754352D01*
X147430000Y-91891556D01*
G37*
G36*
X146820389Y-90596946D02*
G01*
X146880905Y-90612716D01*
X146932936Y-90637925D01*
X146977845Y-90672601D01*
X147013325Y-90715598D01*
X147039858Y-90769496D01*
X147056994Y-90836713D01*
X147063208Y-90920385D01*
X147063208Y-91165422D01*
X147430000Y-91165422D01*
X147430000Y-91302564D01*
X146435992Y-91302564D01*
X146435992Y-90920385D01*
X146559213Y-90920385D01*
X146559213Y-91165422D01*
X146939987Y-91165422D01*
X146939987Y-90920385D01*
X146933131Y-90856435D01*
X146914520Y-90808774D01*
X146885399Y-90773412D01*
X146846667Y-90747263D01*
X146801947Y-90731336D01*
X146749600Y-90725785D01*
X146693537Y-90731525D01*
X146648098Y-90747614D01*
X146610992Y-90773412D01*
X146583501Y-90808538D01*
X146565775Y-90856180D01*
X146559213Y-90920385D01*
X146435992Y-90920385D01*
X146442305Y-90834305D01*
X146459593Y-90766184D01*
X146486150Y-90712499D01*
X146521416Y-90670525D01*
X146566166Y-90636816D01*
X146618130Y-90612236D01*
X146678680Y-90596826D01*
X146749600Y-90591390D01*
X146820389Y-90596946D01*
G37*
G36*
X147301222Y-89584316D02*
G01*
X147206029Y-89496083D01*
X147255798Y-89431671D01*
X147293529Y-89358208D01*
X147317208Y-89279486D01*
X147324975Y-89200671D01*
X147319982Y-89135402D01*
X147306272Y-89083553D01*
X147285102Y-89042463D01*
X147254819Y-89009396D01*
X147219273Y-88990234D01*
X147176598Y-88983661D01*
X147148924Y-88987123D01*
X147124478Y-88997279D01*
X147102409Y-89014497D01*
X147074020Y-89048761D01*
X147047088Y-89094975D01*
X147000193Y-89204884D01*
X146951222Y-89325296D01*
X146922206Y-89383415D01*
X146889612Y-89435205D01*
X146850998Y-89480480D01*
X146806325Y-89515744D01*
X146772871Y-89532464D01*
X146734265Y-89542867D01*
X146689394Y-89546519D01*
X146645510Y-89542879D01*
X146606136Y-89532315D01*
X146570448Y-89515012D01*
X146522930Y-89478708D01*
X146483620Y-89432397D01*
X146453003Y-89379091D01*
X146431107Y-89321083D01*
X146417842Y-89261118D01*
X146413583Y-89204884D01*
X146417731Y-89142183D01*
X146430082Y-89081708D01*
X146450708Y-89022923D01*
X146479099Y-88967553D01*
X146514238Y-88918263D01*
X146556404Y-88874485D01*
X146641828Y-88966870D01*
X146592706Y-89025913D01*
X146563426Y-89079588D01*
X146546843Y-89137331D01*
X146541017Y-89204884D01*
X146545313Y-89250822D01*
X146558541Y-89298002D01*
X146580122Y-89341633D01*
X146608916Y-89377137D01*
X146632428Y-89395162D01*
X146658042Y-89405735D01*
X146686585Y-89409316D01*
X146715238Y-89405853D01*
X146740645Y-89395699D01*
X146763644Y-89378541D01*
X146793218Y-89344037D01*
X146821041Y-89297330D01*
X146870012Y-89186688D01*
X146920448Y-89067009D01*
X146949198Y-89009313D01*
X146981325Y-88957100D01*
X147019286Y-88911220D01*
X147063208Y-88875889D01*
X147096160Y-88859095D01*
X147133625Y-88848729D01*
X147176598Y-88845115D01*
X147237061Y-88851098D01*
X147289590Y-88868331D01*
X147335820Y-88896598D01*
X147376816Y-88936828D01*
X147408027Y-88984080D01*
X147431621Y-89042226D01*
X147446892Y-89113513D01*
X147452409Y-89200671D01*
X147447539Y-89274467D01*
X147433078Y-89345202D01*
X147408995Y-89413529D01*
X147376893Y-89478772D01*
X147340936Y-89535419D01*
X147301222Y-89584316D01*
G37*
G36*
X147430000Y-88660711D02*
G01*
X146435992Y-88660711D01*
X146435992Y-88034961D01*
X146559213Y-88034961D01*
X146559213Y-88522165D01*
X146850411Y-88522165D01*
X146850411Y-88068545D01*
X146973571Y-88068545D01*
X146973571Y-88522165D01*
X147306779Y-88522165D01*
X147306779Y-88023726D01*
X147430000Y-88023726D01*
X147430000Y-88660711D01*
G37*
G36*
X147430000Y-87256987D02*
G01*
X147035181Y-87518815D01*
X147035181Y-87691006D01*
X147430000Y-87691006D01*
X147430000Y-87828210D01*
X146435992Y-87828210D01*
X146435992Y-87473996D01*
X146559213Y-87473996D01*
X146559213Y-87691006D01*
X146912021Y-87691006D01*
X146912021Y-87473996D01*
X146905681Y-87409602D01*
X146888614Y-87361973D01*
X146862318Y-87327023D01*
X146826688Y-87300855D01*
X146785030Y-87284952D01*
X146735617Y-87279396D01*
X146679686Y-87285260D01*
X146637120Y-87301292D01*
X146604746Y-87326491D01*
X146580766Y-87361730D01*
X146565059Y-87409592D01*
X146559213Y-87473996D01*
X146435992Y-87473996D01*
X146441869Y-87387352D01*
X146457896Y-87319076D01*
X146482324Y-87265615D01*
X146514394Y-87224136D01*
X146555809Y-87190663D01*
X146605315Y-87166095D01*
X146664537Y-87150543D01*
X146735617Y-87145001D01*
X146810286Y-87151777D01*
X146872969Y-87170951D01*
X146926004Y-87201727D01*
X146959519Y-87232512D01*
X146987256Y-87270543D01*
X147009342Y-87316927D01*
X147025411Y-87373185D01*
X147416017Y-87107205D01*
X147430000Y-87107205D01*
X147430000Y-87256987D01*
G37*
G36*
X146435992Y-86998456D02*
G01*
X146435992Y-86857039D01*
X146692747Y-86797180D01*
X146913426Y-86740840D01*
X147121060Y-86679604D01*
X147294200Y-86617620D01*
X147121062Y-86555681D01*
X146913426Y-86494460D01*
X146692747Y-86438121D01*
X146435992Y-86378262D01*
X146435992Y-86236845D01*
X146745752Y-86311281D01*
X147003002Y-86383147D01*
X147167523Y-86436856D01*
X147309080Y-86490847D01*
X147430000Y-86544836D01*
X147430000Y-86690465D01*
X147309158Y-86743738D01*
X147167600Y-86797468D01*
X147003002Y-86851421D01*
X146745747Y-86923796D01*
X146435992Y-86998456D01*
G37*
G36*
X147430000Y-86058060D02*
G01*
X146435992Y-86058060D01*
X146435992Y-85432309D01*
X146559213Y-85432309D01*
X146559213Y-85919513D01*
X146850411Y-85919513D01*
X146850411Y-85465893D01*
X146973571Y-85465893D01*
X146973571Y-85919513D01*
X147306779Y-85919513D01*
X147306779Y-85421074D01*
X147430000Y-85421074D01*
X147430000Y-86058060D01*
G37*
G36*
X147430000Y-84654335D02*
G01*
X147035181Y-84916163D01*
X147035181Y-85088354D01*
X147430000Y-85088354D01*
X147430000Y-85225558D01*
X146435992Y-85225558D01*
X146435992Y-84871345D01*
X146559213Y-84871345D01*
X146559213Y-85088354D01*
X146912021Y-85088354D01*
X146912021Y-84871345D01*
X146905681Y-84806950D01*
X146888614Y-84759322D01*
X146862318Y-84724371D01*
X146826688Y-84698204D01*
X146785030Y-84682300D01*
X146735617Y-84676744D01*
X146679686Y-84682609D01*
X146637120Y-84698641D01*
X146604746Y-84723839D01*
X146580766Y-84759078D01*
X146565059Y-84806940D01*
X146559213Y-84871345D01*
X146435992Y-84871345D01*
X146441869Y-84784701D01*
X146457896Y-84716424D01*
X146482324Y-84662963D01*
X146514394Y-84621484D01*
X146555809Y-84588012D01*
X146605315Y-84563443D01*
X146664537Y-84547892D01*
X146735617Y-84542349D01*
X146810286Y-84549126D01*
X146872969Y-84568299D01*
X146926004Y-84599075D01*
X146959519Y-84629860D01*
X146987256Y-84667891D01*
X147009342Y-84714275D01*
X147025411Y-84770533D01*
X147416017Y-84504553D01*
X147430000Y-84504553D01*
X147430000Y-84654335D01*
G37*
D11*
X150623809Y-116678628D02*
X150623809Y-117154819D01*
X150290476Y-116154819D02*
X150623809Y-116678628D01*
X150623809Y-116678628D02*
X150957142Y-116154819D01*
X151814285Y-117154819D02*
X151242857Y-117154819D01*
X151528571Y-117154819D02*
X151528571Y-116154819D01*
X151528571Y-116154819D02*
X151433333Y-116297676D01*
X151433333Y-116297676D02*
X151338095Y-116392914D01*
X151338095Y-116392914D02*
X151242857Y-116440533D01*
X137979166Y-118761009D02*
X137645833Y-118761009D01*
X137645833Y-119284819D02*
X137645833Y-118284819D01*
X137645833Y-118284819D02*
X138122023Y-118284819D01*
X138836309Y-118761009D02*
X138979166Y-118808628D01*
X138979166Y-118808628D02*
X139026785Y-118856247D01*
X139026785Y-118856247D02*
X139074404Y-118951485D01*
X139074404Y-118951485D02*
X139074404Y-119094342D01*
X139074404Y-119094342D02*
X139026785Y-119189580D01*
X139026785Y-119189580D02*
X138979166Y-119237200D01*
X138979166Y-119237200D02*
X138883928Y-119284819D01*
X138883928Y-119284819D02*
X138502976Y-119284819D01*
X138502976Y-119284819D02*
X138502976Y-118284819D01*
X138502976Y-118284819D02*
X138836309Y-118284819D01*
X138836309Y-118284819D02*
X138931547Y-118332438D01*
X138931547Y-118332438D02*
X138979166Y-118380057D01*
X138979166Y-118380057D02*
X139026785Y-118475295D01*
X139026785Y-118475295D02*
X139026785Y-118570533D01*
X139026785Y-118570533D02*
X138979166Y-118665771D01*
X138979166Y-118665771D02*
X138931547Y-118713390D01*
X138931547Y-118713390D02*
X138836309Y-118761009D01*
X138836309Y-118761009D02*
X138502976Y-118761009D01*
X139455357Y-118380057D02*
X139502976Y-118332438D01*
X139502976Y-118332438D02*
X139598214Y-118284819D01*
X139598214Y-118284819D02*
X139836309Y-118284819D01*
X139836309Y-118284819D02*
X139931547Y-118332438D01*
X139931547Y-118332438D02*
X139979166Y-118380057D01*
X139979166Y-118380057D02*
X140026785Y-118475295D01*
X140026785Y-118475295D02*
X140026785Y-118570533D01*
X140026785Y-118570533D02*
X139979166Y-118713390D01*
X139979166Y-118713390D02*
X139407738Y-119284819D01*
X139407738Y-119284819D02*
X140026785Y-119284819D01*
X145264819Y-131583333D02*
X145979104Y-131583333D01*
X145979104Y-131583333D02*
X146121961Y-131630952D01*
X146121961Y-131630952D02*
X146217200Y-131726190D01*
X146217200Y-131726190D02*
X146264819Y-131869047D01*
X146264819Y-131869047D02*
X146264819Y-131964285D01*
X145598152Y-130678571D02*
X146264819Y-130678571D01*
X145217200Y-130916666D02*
X145931485Y-131154761D01*
X145931485Y-131154761D02*
X145931485Y-130535714D01*
X130564400Y-106954819D02*
X130564400Y-107192914D01*
X130326305Y-107097676D02*
X130564400Y-107192914D01*
X130564400Y-107192914D02*
X130802495Y-107097676D01*
X130421543Y-107383390D02*
X130564400Y-107192914D01*
X130564400Y-107192914D02*
X130707257Y-107383390D01*
X130564400Y-106954819D02*
X130564400Y-107192914D01*
X130326305Y-107097676D02*
X130564400Y-107192914D01*
X130564400Y-107192914D02*
X130802495Y-107097676D01*
X130421543Y-107383390D02*
X130564400Y-107192914D01*
X130564400Y-107192914D02*
X130707257Y-107383390D01*
X144107142Y-112079580D02*
X144059523Y-112127200D01*
X144059523Y-112127200D02*
X143916666Y-112174819D01*
X143916666Y-112174819D02*
X143821428Y-112174819D01*
X143821428Y-112174819D02*
X143678571Y-112127200D01*
X143678571Y-112127200D02*
X143583333Y-112031961D01*
X143583333Y-112031961D02*
X143535714Y-111936723D01*
X143535714Y-111936723D02*
X143488095Y-111746247D01*
X143488095Y-111746247D02*
X143488095Y-111603390D01*
X143488095Y-111603390D02*
X143535714Y-111412914D01*
X143535714Y-111412914D02*
X143583333Y-111317676D01*
X143583333Y-111317676D02*
X143678571Y-111222438D01*
X143678571Y-111222438D02*
X143821428Y-111174819D01*
X143821428Y-111174819D02*
X143916666Y-111174819D01*
X143916666Y-111174819D02*
X144059523Y-111222438D01*
X144059523Y-111222438D02*
X144107142Y-111270057D01*
X144440476Y-111174819D02*
X145059523Y-111174819D01*
X145059523Y-111174819D02*
X144726190Y-111555771D01*
X144726190Y-111555771D02*
X144869047Y-111555771D01*
X144869047Y-111555771D02*
X144964285Y-111603390D01*
X144964285Y-111603390D02*
X145011904Y-111651009D01*
X145011904Y-111651009D02*
X145059523Y-111746247D01*
X145059523Y-111746247D02*
X145059523Y-111984342D01*
X145059523Y-111984342D02*
X145011904Y-112079580D01*
X145011904Y-112079580D02*
X144964285Y-112127200D01*
X144964285Y-112127200D02*
X144869047Y-112174819D01*
X144869047Y-112174819D02*
X144583333Y-112174819D01*
X144583333Y-112174819D02*
X144488095Y-112127200D01*
X144488095Y-112127200D02*
X144440476Y-112079580D01*
X145392857Y-111174819D02*
X146059523Y-111174819D01*
X146059523Y-111174819D02*
X145630952Y-112174819D01*
X155166667Y-93007200D02*
X155309524Y-93054819D01*
X155309524Y-93054819D02*
X155547619Y-93054819D01*
X155547619Y-93054819D02*
X155642857Y-93007200D01*
X155642857Y-93007200D02*
X155690476Y-92959580D01*
X155690476Y-92959580D02*
X155738095Y-92864342D01*
X155738095Y-92864342D02*
X155738095Y-92769104D01*
X155738095Y-92769104D02*
X155690476Y-92673866D01*
X155690476Y-92673866D02*
X155642857Y-92626247D01*
X155642857Y-92626247D02*
X155547619Y-92578628D01*
X155547619Y-92578628D02*
X155357143Y-92531009D01*
X155357143Y-92531009D02*
X155261905Y-92483390D01*
X155261905Y-92483390D02*
X155214286Y-92435771D01*
X155214286Y-92435771D02*
X155166667Y-92340533D01*
X155166667Y-92340533D02*
X155166667Y-92245295D01*
X155166667Y-92245295D02*
X155214286Y-92150057D01*
X155214286Y-92150057D02*
X155261905Y-92102438D01*
X155261905Y-92102438D02*
X155357143Y-92054819D01*
X155357143Y-92054819D02*
X155595238Y-92054819D01*
X155595238Y-92054819D02*
X155738095Y-92102438D01*
X156071429Y-92054819D02*
X156309524Y-93054819D01*
X156309524Y-93054819D02*
X156500000Y-92340533D01*
X156500000Y-92340533D02*
X156690476Y-93054819D01*
X156690476Y-93054819D02*
X156928572Y-92054819D01*
X157833333Y-93054819D02*
X157261905Y-93054819D01*
X157547619Y-93054819D02*
X157547619Y-92054819D01*
X157547619Y-92054819D02*
X157452381Y-92197676D01*
X157452381Y-92197676D02*
X157357143Y-92292914D01*
X157357143Y-92292914D02*
X157261905Y-92340533D01*
X137879166Y-121861009D02*
X137545833Y-121861009D01*
X137545833Y-122384819D02*
X137545833Y-121384819D01*
X137545833Y-121384819D02*
X138022023Y-121384819D01*
X138736309Y-121861009D02*
X138879166Y-121908628D01*
X138879166Y-121908628D02*
X138926785Y-121956247D01*
X138926785Y-121956247D02*
X138974404Y-122051485D01*
X138974404Y-122051485D02*
X138974404Y-122194342D01*
X138974404Y-122194342D02*
X138926785Y-122289580D01*
X138926785Y-122289580D02*
X138879166Y-122337200D01*
X138879166Y-122337200D02*
X138783928Y-122384819D01*
X138783928Y-122384819D02*
X138402976Y-122384819D01*
X138402976Y-122384819D02*
X138402976Y-121384819D01*
X138402976Y-121384819D02*
X138736309Y-121384819D01*
X138736309Y-121384819D02*
X138831547Y-121432438D01*
X138831547Y-121432438D02*
X138879166Y-121480057D01*
X138879166Y-121480057D02*
X138926785Y-121575295D01*
X138926785Y-121575295D02*
X138926785Y-121670533D01*
X138926785Y-121670533D02*
X138879166Y-121765771D01*
X138879166Y-121765771D02*
X138831547Y-121813390D01*
X138831547Y-121813390D02*
X138736309Y-121861009D01*
X138736309Y-121861009D02*
X138402976Y-121861009D01*
X139307738Y-121384819D02*
X139926785Y-121384819D01*
X139926785Y-121384819D02*
X139593452Y-121765771D01*
X139593452Y-121765771D02*
X139736309Y-121765771D01*
X139736309Y-121765771D02*
X139831547Y-121813390D01*
X139831547Y-121813390D02*
X139879166Y-121861009D01*
X139879166Y-121861009D02*
X139926785Y-121956247D01*
X139926785Y-121956247D02*
X139926785Y-122194342D01*
X139926785Y-122194342D02*
X139879166Y-122289580D01*
X139879166Y-122289580D02*
X139831547Y-122337200D01*
X139831547Y-122337200D02*
X139736309Y-122384819D01*
X139736309Y-122384819D02*
X139450595Y-122384819D01*
X139450595Y-122384819D02*
X139355357Y-122337200D01*
X139355357Y-122337200D02*
X139307738Y-122289580D01*
X144166666Y-113454819D02*
X144166666Y-114169104D01*
X144166666Y-114169104D02*
X144119047Y-114311961D01*
X144119047Y-114311961D02*
X144023809Y-114407200D01*
X144023809Y-114407200D02*
X143880952Y-114454819D01*
X143880952Y-114454819D02*
X143785714Y-114454819D01*
X144595238Y-113550057D02*
X144642857Y-113502438D01*
X144642857Y-113502438D02*
X144738095Y-113454819D01*
X144738095Y-113454819D02*
X144976190Y-113454819D01*
X144976190Y-113454819D02*
X145071428Y-113502438D01*
X145071428Y-113502438D02*
X145119047Y-113550057D01*
X145119047Y-113550057D02*
X145166666Y-113645295D01*
X145166666Y-113645295D02*
X145166666Y-113740533D01*
X145166666Y-113740533D02*
X145119047Y-113883390D01*
X145119047Y-113883390D02*
X144547619Y-114454819D01*
X144547619Y-114454819D02*
X145166666Y-114454819D01*
X137954166Y-120261009D02*
X137620833Y-120261009D01*
X137620833Y-120784819D02*
X137620833Y-119784819D01*
X137620833Y-119784819D02*
X138097023Y-119784819D01*
X138811309Y-120261009D02*
X138954166Y-120308628D01*
X138954166Y-120308628D02*
X139001785Y-120356247D01*
X139001785Y-120356247D02*
X139049404Y-120451485D01*
X139049404Y-120451485D02*
X139049404Y-120594342D01*
X139049404Y-120594342D02*
X139001785Y-120689580D01*
X139001785Y-120689580D02*
X138954166Y-120737200D01*
X138954166Y-120737200D02*
X138858928Y-120784819D01*
X138858928Y-120784819D02*
X138477976Y-120784819D01*
X138477976Y-120784819D02*
X138477976Y-119784819D01*
X138477976Y-119784819D02*
X138811309Y-119784819D01*
X138811309Y-119784819D02*
X138906547Y-119832438D01*
X138906547Y-119832438D02*
X138954166Y-119880057D01*
X138954166Y-119880057D02*
X139001785Y-119975295D01*
X139001785Y-119975295D02*
X139001785Y-120070533D01*
X139001785Y-120070533D02*
X138954166Y-120165771D01*
X138954166Y-120165771D02*
X138906547Y-120213390D01*
X138906547Y-120213390D02*
X138811309Y-120261009D01*
X138811309Y-120261009D02*
X138477976Y-120261009D01*
X140001785Y-120784819D02*
X139430357Y-120784819D01*
X139716071Y-120784819D02*
X139716071Y-119784819D01*
X139716071Y-119784819D02*
X139620833Y-119927676D01*
X139620833Y-119927676D02*
X139525595Y-120022914D01*
X139525595Y-120022914D02*
X139430357Y-120070533D01*
X150438095Y-106224819D02*
X150438095Y-107034342D01*
X150438095Y-107034342D02*
X150485714Y-107129580D01*
X150485714Y-107129580D02*
X150533333Y-107177200D01*
X150533333Y-107177200D02*
X150628571Y-107224819D01*
X150628571Y-107224819D02*
X150819047Y-107224819D01*
X150819047Y-107224819D02*
X150914285Y-107177200D01*
X150914285Y-107177200D02*
X150961904Y-107129580D01*
X150961904Y-107129580D02*
X151009523Y-107034342D01*
X151009523Y-107034342D02*
X151009523Y-106224819D01*
X152009523Y-107224819D02*
X151438095Y-107224819D01*
X151723809Y-107224819D02*
X151723809Y-106224819D01*
X151723809Y-106224819D02*
X151628571Y-106367676D01*
X151628571Y-106367676D02*
X151533333Y-106462914D01*
X151533333Y-106462914D02*
X151438095Y-106510533D01*
X153041666Y-90054819D02*
X153041666Y-90769104D01*
X153041666Y-90769104D02*
X152994047Y-90911961D01*
X152994047Y-90911961D02*
X152898809Y-91007200D01*
X152898809Y-91007200D02*
X152755952Y-91054819D01*
X152755952Y-91054819D02*
X152660714Y-91054819D01*
X154041666Y-91054819D02*
X153470238Y-91054819D01*
X153755952Y-91054819D02*
X153755952Y-90054819D01*
X153755952Y-90054819D02*
X153660714Y-90197676D01*
X153660714Y-90197676D02*
X153565476Y-90292914D01*
X153565476Y-90292914D02*
X153470238Y-90340533D01*
X135161009Y-119620833D02*
X135161009Y-119954166D01*
X135684819Y-119954166D02*
X134684819Y-119954166D01*
X134684819Y-119954166D02*
X134684819Y-119477976D01*
X135161009Y-118763690D02*
X135208628Y-118620833D01*
X135208628Y-118620833D02*
X135256247Y-118573214D01*
X135256247Y-118573214D02*
X135351485Y-118525595D01*
X135351485Y-118525595D02*
X135494342Y-118525595D01*
X135494342Y-118525595D02*
X135589580Y-118573214D01*
X135589580Y-118573214D02*
X135637200Y-118620833D01*
X135637200Y-118620833D02*
X135684819Y-118716071D01*
X135684819Y-118716071D02*
X135684819Y-119097023D01*
X135684819Y-119097023D02*
X134684819Y-119097023D01*
X134684819Y-119097023D02*
X134684819Y-118763690D01*
X134684819Y-118763690D02*
X134732438Y-118668452D01*
X134732438Y-118668452D02*
X134780057Y-118620833D01*
X134780057Y-118620833D02*
X134875295Y-118573214D01*
X134875295Y-118573214D02*
X134970533Y-118573214D01*
X134970533Y-118573214D02*
X135065771Y-118620833D01*
X135065771Y-118620833D02*
X135113390Y-118668452D01*
X135113390Y-118668452D02*
X135161009Y-118763690D01*
X135161009Y-118763690D02*
X135161009Y-119097023D01*
X135018152Y-117668452D02*
X135684819Y-117668452D01*
X134637200Y-117906547D02*
X135351485Y-118144642D01*
X135351485Y-118144642D02*
X135351485Y-117525595D01*
X148538095Y-91654819D02*
X148538095Y-92464342D01*
X148538095Y-92464342D02*
X148585714Y-92559580D01*
X148585714Y-92559580D02*
X148633333Y-92607200D01*
X148633333Y-92607200D02*
X148728571Y-92654819D01*
X148728571Y-92654819D02*
X148919047Y-92654819D01*
X148919047Y-92654819D02*
X149014285Y-92607200D01*
X149014285Y-92607200D02*
X149061904Y-92559580D01*
X149061904Y-92559580D02*
X149109523Y-92464342D01*
X149109523Y-92464342D02*
X149109523Y-91654819D01*
X149538095Y-91750057D02*
X149585714Y-91702438D01*
X149585714Y-91702438D02*
X149680952Y-91654819D01*
X149680952Y-91654819D02*
X149919047Y-91654819D01*
X149919047Y-91654819D02*
X150014285Y-91702438D01*
X150014285Y-91702438D02*
X150061904Y-91750057D01*
X150061904Y-91750057D02*
X150109523Y-91845295D01*
X150109523Y-91845295D02*
X150109523Y-91940533D01*
X150109523Y-91940533D02*
X150061904Y-92083390D01*
X150061904Y-92083390D02*
X149490476Y-92654819D01*
X149490476Y-92654819D02*
X150109523Y-92654819D01*
X146338095Y-104154819D02*
X146338095Y-104964342D01*
X146338095Y-104964342D02*
X146385714Y-105059580D01*
X146385714Y-105059580D02*
X146433333Y-105107200D01*
X146433333Y-105107200D02*
X146528571Y-105154819D01*
X146528571Y-105154819D02*
X146719047Y-105154819D01*
X146719047Y-105154819D02*
X146814285Y-105107200D01*
X146814285Y-105107200D02*
X146861904Y-105059580D01*
X146861904Y-105059580D02*
X146909523Y-104964342D01*
X146909523Y-104964342D02*
X146909523Y-104154819D01*
X147814285Y-104488152D02*
X147814285Y-105154819D01*
X147576190Y-104107200D02*
X147338095Y-104821485D01*
X147338095Y-104821485D02*
X147957142Y-104821485D01*
D12*
%TO.C,C6*%
X154065000Y-103657836D02*
X154065000Y-103442164D01*
X154785000Y-103657836D02*
X154785000Y-103442164D01*
%TO.C,R10*%
X142163641Y-107120000D02*
X141856359Y-107120000D01*
X142163641Y-107880000D02*
X141856359Y-107880000D01*
%TO.C,C5*%
X156715000Y-106857836D02*
X156715000Y-106642164D01*
X157435000Y-106857836D02*
X157435000Y-106642164D01*
%TO.C,C13*%
X150105580Y-90270000D02*
X149824420Y-90270000D01*
X150105580Y-91290000D02*
X149824420Y-91290000D01*
%TO.C,C4*%
X148632836Y-107640000D02*
X148417164Y-107640000D01*
X148632836Y-108360000D02*
X148417164Y-108360000D01*
%TO.C,C2*%
X154815000Y-117122164D02*
X154815000Y-117337836D01*
X155535000Y-117122164D02*
X155535000Y-117337836D01*
%TO.C,Y1*%
X154585000Y-117520000D02*
X150465000Y-117520000D01*
X154585000Y-120940000D02*
X154585000Y-117520000D01*
%TO.C,FB2*%
X138975279Y-116890000D02*
X138649721Y-116890000D01*
X138975279Y-117910000D02*
X138649721Y-117910000D01*
%TO.C,R12*%
X141620000Y-115663641D02*
X141620000Y-115356359D01*
X142380000Y-115663641D02*
X142380000Y-115356359D01*
%TO.C,Y2*%
X122840000Y-105540000D02*
X122840000Y-108960000D01*
X122840000Y-108960000D02*
X126960000Y-108960000D01*
%TO.C,C33*%
X129912164Y-118640000D02*
X130127836Y-118640000D01*
X129912164Y-119360000D02*
X130127836Y-119360000D01*
%TO.C,C20*%
X130087836Y-120640000D02*
X129872164Y-120640000D01*
X130087836Y-121360000D02*
X129872164Y-121360000D01*
%TO.C,C1*%
X158244190Y-106346693D02*
X158396693Y-106194190D01*
X158753307Y-106855810D02*
X158905810Y-106703307D01*
%TO.C,R15*%
X135120000Y-105356359D02*
X135120000Y-105663641D01*
X135880000Y-105356359D02*
X135880000Y-105663641D01*
%TO.C,C7*%
X155025000Y-102917836D02*
X155025000Y-102702164D01*
X155745000Y-102917836D02*
X155745000Y-102702164D01*
%TO.C,R7*%
X148941359Y-101590000D02*
X149248641Y-101590000D01*
X148941359Y-102350000D02*
X149248641Y-102350000D01*
%TO.C,J4*%
X146810000Y-132630000D02*
X146810000Y-131250000D01*
X148190000Y-132630000D02*
X146810000Y-132630000D01*
X149460000Y-129870000D02*
X157190000Y-129870000D01*
X149460000Y-132630000D02*
X149460000Y-129870000D01*
X149460000Y-132630000D02*
X157190000Y-132630000D01*
X157190000Y-132630000D02*
X157190000Y-129870000D01*
%TO.C,C19*%
X126140000Y-111087836D02*
X126140000Y-110872164D01*
X126860000Y-111087836D02*
X126860000Y-110872164D01*
%TO.C,C15*%
X149515000Y-119292164D02*
X149515000Y-119507836D01*
X150235000Y-119292164D02*
X150235000Y-119507836D01*
%TO.C,C29*%
X128127836Y-114290000D02*
X127912164Y-114290000D01*
X128127836Y-115010000D02*
X127912164Y-115010000D01*
%TO.C,R8*%
X126846359Y-109120000D02*
X127153641Y-109120000D01*
X126846359Y-109880000D02*
X127153641Y-109880000D01*
%TO.C,R6*%
X156746359Y-98870000D02*
X157053641Y-98870000D01*
X156746359Y-99630000D02*
X157053641Y-99630000D01*
D13*
%TO.C,U3*%
X131377200Y-106877200D02*
X131377200Y-107290260D01*
X131377200Y-115709740D02*
X131377200Y-116122800D01*
X131377200Y-116122800D02*
X131790260Y-116122800D01*
X131790260Y-106877200D02*
X131377200Y-106877200D01*
X140209740Y-116122800D02*
X140622800Y-116122800D01*
X140622800Y-106877200D02*
X140209740Y-106877200D01*
X140622800Y-107290260D02*
X140622800Y-106877200D01*
X140622800Y-116122800D02*
X140622800Y-115709740D01*
D14*
G36*
X130945400Y-112440501D02*
G01*
X130691400Y-112440501D01*
X130691400Y-112059501D01*
X130945400Y-112059501D01*
X130945400Y-112440501D01*
G37*
G36*
X133940499Y-116808600D02*
G01*
X133559499Y-116808600D01*
X133559499Y-116554600D01*
X133940499Y-116554600D01*
X133940499Y-116808600D01*
G37*
G36*
X134440501Y-106445400D02*
G01*
X134059501Y-106445400D01*
X134059501Y-106191400D01*
X134440501Y-106191400D01*
X134440501Y-106445400D01*
G37*
G36*
X138940500Y-116808600D02*
G01*
X138559500Y-116808600D01*
X138559500Y-116554600D01*
X138940500Y-116554600D01*
X138940500Y-116808600D01*
G37*
G36*
X139440501Y-106445400D02*
G01*
X139059501Y-106445400D01*
X139059501Y-106191400D01*
X139440501Y-106191400D01*
X139440501Y-106445400D01*
G37*
G36*
X141308600Y-111940500D02*
G01*
X141054600Y-111940500D01*
X141054600Y-111559499D01*
X141308600Y-111559499D01*
X141308600Y-111940500D01*
G37*
D12*
%TO.C,C11*%
X155740000Y-106527836D02*
X155740000Y-106312164D01*
X156460000Y-106527836D02*
X156460000Y-106312164D01*
%TO.C,C37*%
X144488748Y-112665000D02*
X145011252Y-112665000D01*
X144488748Y-114135000D02*
X145011252Y-114135000D01*
%TO.C,C10*%
X155855000Y-117132164D02*
X155855000Y-117347836D01*
X156575000Y-117132164D02*
X156575000Y-117347836D01*
%TO.C,C36*%
X133140000Y-105587836D02*
X133140000Y-105372164D01*
X133860000Y-105587836D02*
X133860000Y-105372164D01*
%TO.C,SW1*%
X154855000Y-93780000D02*
X155155000Y-93780000D01*
X154855000Y-97920000D02*
X154855000Y-93780000D01*
X155155000Y-97920000D02*
X154855000Y-97920000D01*
X157695000Y-93780000D02*
X157995000Y-93780000D01*
X157995000Y-93780000D02*
X157995000Y-97920000D01*
X157995000Y-97920000D02*
X157695000Y-97920000D01*
%TO.C,FB3*%
X138875279Y-119990000D02*
X138549721Y-119990000D01*
X138875279Y-121010000D02*
X138549721Y-121010000D01*
%TO.C,C38*%
X137540000Y-122172164D02*
X137540000Y-122387836D01*
X138260000Y-122172164D02*
X138260000Y-122387836D01*
%TO.C,R5*%
X153468641Y-116530000D02*
X153161359Y-116530000D01*
X153468641Y-117290000D02*
X153161359Y-117290000D01*
%TO.C,C23*%
X134640000Y-117412164D02*
X134640000Y-117627836D01*
X135360000Y-117412164D02*
X135360000Y-117627836D01*
%TO.C,C35*%
X131640000Y-105627836D02*
X131640000Y-105412164D01*
X132360000Y-105627836D02*
X132360000Y-105412164D01*
%TO.C,C14*%
X151115580Y-96040000D02*
X150834420Y-96040000D01*
X151115580Y-97060000D02*
X150834420Y-97060000D01*
%TO.C,R13*%
X128893641Y-112370000D02*
X128586359Y-112370000D01*
X128893641Y-113130000D02*
X128586359Y-113130000D01*
%TO.C,J2*%
X143120000Y-115000000D02*
X144500000Y-115000000D01*
X143120000Y-116380000D02*
X143120000Y-115000000D01*
X143120000Y-117650000D02*
X143120000Y-133000000D01*
X143120000Y-117650000D02*
X145880000Y-117650000D01*
X143120000Y-133000000D02*
X145880000Y-133000000D01*
X145880000Y-117650000D02*
X145880000Y-133000000D01*
%TO.C,R9*%
X140346359Y-105120000D02*
X140653641Y-105120000D01*
X140346359Y-105880000D02*
X140653641Y-105880000D01*
%TO.C,C27*%
X128127836Y-116640000D02*
X127912164Y-116640000D01*
X128127836Y-117360000D02*
X127912164Y-117360000D01*
%TO.C,FB1*%
X138950279Y-118390000D02*
X138624721Y-118390000D01*
X138950279Y-119410000D02*
X138624721Y-119410000D01*
%TO.C,R2*%
X154385000Y-90766359D02*
X154385000Y-91073641D01*
X155145000Y-90766359D02*
X155145000Y-91073641D01*
D14*
%TO.C,G\u002A\u002A\u002A*%
G36*
X154534891Y-123806010D02*
G01*
X154513509Y-123851863D01*
X154467656Y-123830482D01*
X154489037Y-123784628D01*
X154534891Y-123806010D01*
G37*
G36*
X156821352Y-124648913D02*
G01*
X156799970Y-124694765D01*
X156754118Y-124673384D01*
X156775499Y-124627531D01*
X156821352Y-124648913D01*
G37*
G36*
X156906878Y-124465501D02*
G01*
X156885496Y-124511354D01*
X156839644Y-124489972D01*
X156861025Y-124444119D01*
X156906878Y-124465501D01*
G37*
G36*
X157225252Y-126177010D02*
G01*
X157203870Y-126222863D01*
X157158017Y-126201482D01*
X157179399Y-126155628D01*
X157225252Y-126177010D01*
G37*
G36*
X157100877Y-125905024D02*
G01*
X157137965Y-125981887D01*
X157133505Y-125994670D01*
X157090175Y-125999989D01*
X157072368Y-125966162D01*
X157076825Y-125901866D01*
X157100877Y-125905024D01*
G37*
G36*
X149993031Y-125437564D02*
G01*
X150020409Y-125516799D01*
X150023981Y-125682733D01*
X150021023Y-125725596D01*
X149998546Y-125990093D01*
X149949617Y-125746959D01*
X149918903Y-125530002D01*
X149941244Y-125435360D01*
X149993031Y-125437564D01*
G37*
G36*
X151370695Y-125575653D02*
G01*
X151199277Y-125642840D01*
X151171643Y-125652961D01*
X150985677Y-125716748D01*
X150900127Y-125737602D01*
X150930745Y-125711906D01*
X150943262Y-125705376D01*
X151174970Y-125608440D01*
X151380285Y-125546313D01*
X151435828Y-125541025D01*
X151370695Y-125575653D01*
G37*
G36*
X151468580Y-125844591D02*
G01*
X151297163Y-125911778D01*
X151269528Y-125921897D01*
X151083562Y-125985687D01*
X150998012Y-126006540D01*
X151028630Y-125980844D01*
X151041147Y-125974313D01*
X151272855Y-125877378D01*
X151478170Y-125815250D01*
X151533714Y-125809963D01*
X151468580Y-125844591D01*
G37*
G36*
X155747601Y-125886120D02*
G01*
X155576183Y-125953306D01*
X155548549Y-125963427D01*
X155362583Y-126027215D01*
X155277033Y-126048068D01*
X155307651Y-126022372D01*
X155320167Y-126015842D01*
X155551876Y-125918906D01*
X155757191Y-125856778D01*
X155812734Y-125851492D01*
X155747601Y-125886120D01*
G37*
G36*
X156895203Y-126022325D02*
G01*
X156915312Y-126107155D01*
X156976333Y-126247496D01*
X157045082Y-126287285D01*
X157108623Y-126320745D01*
X157087895Y-126340049D01*
X156967074Y-126343947D01*
X156954296Y-126339082D01*
X156872399Y-126243507D01*
X156834005Y-126102245D01*
X156853569Y-126012116D01*
X156895203Y-126022325D01*
G37*
G36*
X157269078Y-125329453D02*
G01*
X157100810Y-125396159D01*
X156993531Y-125435766D01*
X156784740Y-125508514D01*
X156677803Y-125539167D01*
X156685722Y-125524482D01*
X156733619Y-125500618D01*
X156983738Y-125397719D01*
X157236766Y-125314481D01*
X157271655Y-125305292D01*
X157330758Y-125296943D01*
X157269078Y-125329453D01*
G37*
G36*
X157077186Y-124531625D02*
G01*
X157077419Y-124532183D01*
X157088265Y-124668491D01*
X157066434Y-124717016D01*
X157057839Y-124788881D01*
X157121019Y-124814688D01*
X157171160Y-124845695D01*
X157086262Y-124893756D01*
X157071955Y-124899170D01*
X156957277Y-124930429D01*
X156944889Y-124876552D01*
X156970306Y-124804085D01*
X157019105Y-124629467D01*
X157030355Y-124534771D01*
X157039737Y-124464604D01*
X157077186Y-124531625D01*
G37*
G36*
X154254236Y-123260960D02*
G01*
X154320077Y-123398769D01*
X154313459Y-123480389D01*
X154300977Y-123588468D01*
X154336216Y-123763393D01*
X154345463Y-123792116D01*
X154398640Y-123951567D01*
X154424141Y-124033470D01*
X154424549Y-124036300D01*
X154368172Y-124012617D01*
X154320275Y-123990632D01*
X154231499Y-123874035D01*
X154204250Y-123728297D01*
X154173370Y-123571927D01*
X154121865Y-123537563D01*
X154094399Y-123504639D01*
X154121720Y-123417965D01*
X154166969Y-123267239D01*
X154166780Y-123192177D01*
X154184293Y-123179450D01*
X154254236Y-123260960D01*
G37*
G36*
X157325509Y-125475933D02*
G01*
X157386793Y-125582136D01*
X157388267Y-125708233D01*
X157366269Y-125750003D01*
X157357674Y-125821868D01*
X157420854Y-125847675D01*
X157470996Y-125878681D01*
X157386098Y-125926743D01*
X157371790Y-125932156D01*
X157257271Y-125964739D01*
X157245091Y-125913781D01*
X157276988Y-125828585D01*
X157318269Y-125661994D01*
X157297396Y-125557408D01*
X157225254Y-125547461D01*
X157191177Y-125571265D01*
X157123482Y-125601225D01*
X157118293Y-125567869D01*
X157192829Y-125471497D01*
X157232063Y-125451190D01*
X157325509Y-125475933D01*
G37*
G36*
X154354356Y-125887217D02*
G01*
X154418958Y-126007827D01*
X154496885Y-126211946D01*
X154606010Y-126466432D01*
X154701315Y-126597542D01*
X154738059Y-126613071D01*
X154744755Y-126635263D01*
X154640906Y-126686176D01*
X154599125Y-126702044D01*
X154465006Y-126741864D01*
X154426316Y-126733626D01*
X154435505Y-126723192D01*
X154457138Y-126614201D01*
X154411746Y-126404086D01*
X154376691Y-126300108D01*
X154274498Y-126068521D01*
X154181057Y-125949658D01*
X154149792Y-125938203D01*
X154128313Y-125915181D01*
X154202751Y-125874510D01*
X154290056Y-125851690D01*
X154354356Y-125887217D01*
G37*
G36*
X156114777Y-123986931D02*
G01*
X155958087Y-124047409D01*
X155692141Y-124146937D01*
X155323262Y-124283097D01*
X154857772Y-124453471D01*
X154646309Y-124530524D01*
X154143661Y-124712936D01*
X153734459Y-124860340D01*
X153425099Y-124970524D01*
X153221981Y-125041277D01*
X153131502Y-125070389D01*
X153160060Y-125055645D01*
X153314055Y-124994834D01*
X153412025Y-124957186D01*
X153929317Y-124762341D01*
X154520878Y-124544352D01*
X155125300Y-124325568D01*
X155681178Y-124128342D01*
X155866079Y-124063984D01*
X156075095Y-123992800D01*
X156155888Y-123967922D01*
X156114777Y-123986931D01*
G37*
G36*
X149731490Y-125896940D02*
G01*
X149801826Y-126026599D01*
X149806649Y-126098008D01*
X149792267Y-126196939D01*
X149802762Y-126371634D01*
X149805796Y-126395280D01*
X149835871Y-126553749D01*
X149878069Y-126594621D01*
X149935651Y-126558277D01*
X150008104Y-126522152D01*
X150015038Y-126556021D01*
X149937933Y-126652916D01*
X149812294Y-126682739D01*
X149755697Y-126660382D01*
X149711951Y-126564169D01*
X149683512Y-126392330D01*
X149682768Y-126382361D01*
X149652235Y-126212802D01*
X149599119Y-126173543D01*
X149571653Y-126140619D01*
X149598974Y-126053945D01*
X149644221Y-125903219D01*
X149644035Y-125828157D01*
X149661547Y-125815430D01*
X149731490Y-125896940D01*
G37*
G36*
X156754639Y-124917096D02*
G01*
X156779290Y-124972593D01*
X156798728Y-125157058D01*
X156721609Y-125311138D01*
X156646122Y-125359891D01*
X156554789Y-125329603D01*
X156509775Y-125257235D01*
X156458464Y-125123389D01*
X156444412Y-125090672D01*
X156443758Y-125089149D01*
X156448596Y-125089149D01*
X156494449Y-125110530D01*
X156515830Y-125064678D01*
X156469978Y-125043296D01*
X156448596Y-125089149D01*
X156443758Y-125089149D01*
X156438048Y-125075856D01*
X156462612Y-124995821D01*
X156487109Y-124971932D01*
X156545792Y-124973538D01*
X156578521Y-125104351D01*
X156579680Y-125115104D01*
X156618836Y-125246311D01*
X156676807Y-125260288D01*
X156725160Y-125174878D01*
X156736207Y-125016893D01*
X156732101Y-124900899D01*
X156754639Y-124917096D01*
G37*
G36*
X155443278Y-124560329D02*
G01*
X153690331Y-125219958D01*
X153735543Y-126287261D01*
X153753078Y-126680373D01*
X153770624Y-127037151D01*
X153786512Y-127326172D01*
X153799080Y-127516008D01*
X153802753Y-127556664D01*
X153806590Y-127742308D01*
X153760977Y-127801122D01*
X153661508Y-127732564D01*
X153503777Y-127536088D01*
X153490884Y-127518152D01*
X153336136Y-127307481D01*
X153198865Y-127130283D01*
X153131834Y-127050752D01*
X153052588Y-126911265D01*
X153044189Y-126823394D01*
X153092953Y-126809592D01*
X153205598Y-126919943D01*
X153334524Y-127088469D01*
X153481248Y-127283053D01*
X153599604Y-127422341D01*
X153659516Y-127473509D01*
X153675558Y-127410154D01*
X153683398Y-127227367D01*
X153682957Y-126948584D01*
X153674159Y-126597243D01*
X153663321Y-126327942D01*
X153610041Y-125170534D01*
X155403132Y-124535618D01*
X157196225Y-123900701D01*
X155443278Y-124560329D01*
G37*
D12*
%TO.C,C18*%
X127912164Y-104440000D02*
X128127836Y-104440000D01*
X127912164Y-105160000D02*
X128127836Y-105160000D01*
%TO.C,R3*%
X153670000Y-105936359D02*
X153670000Y-106243641D01*
X154430000Y-105936359D02*
X154430000Y-106243641D01*
%TO.C,U1*%
X149765000Y-108640000D02*
X149765000Y-108230000D01*
X149765000Y-115210000D02*
X149765000Y-114560000D01*
X150415000Y-107990000D02*
X150065000Y-107990000D01*
X150415000Y-115210000D02*
X149765000Y-115210000D01*
X156335000Y-107990000D02*
X156985000Y-107990000D01*
X156335000Y-115210000D02*
X156985000Y-115210000D01*
X156985000Y-107990000D02*
X156985000Y-108640000D01*
X156985000Y-115210000D02*
X156985000Y-114560000D01*
X149765000Y-107990000D02*
X149525000Y-107660000D01*
X150005000Y-107660000D01*
X149765000Y-107990000D01*
G36*
X149765000Y-107990000D02*
G01*
X149525000Y-107660000D01*
X150005000Y-107660000D01*
X149765000Y-107990000D01*
G37*
%TO.C,J1*%
X148675000Y-82600000D02*
X148675000Y-80700000D01*
X148675000Y-86500000D02*
X148675000Y-84500000D01*
X158075000Y-80700000D02*
X148675000Y-80700000D01*
X158075000Y-82600000D02*
X158075000Y-80700000D01*
X158075000Y-86500000D02*
X158075000Y-84500000D01*
%TO.C,C16*%
X154940000Y-119207836D02*
X154940000Y-118992164D01*
X155660000Y-119207836D02*
X155660000Y-118992164D01*
%TO.C,C9*%
X159287164Y-112220000D02*
X159502836Y-112220000D01*
X159287164Y-112940000D02*
X159502836Y-112940000D01*
%TO.C,C32*%
X129872164Y-117640000D02*
X130087836Y-117640000D01*
X129872164Y-118360000D02*
X130087836Y-118360000D01*
%TO.C,C40*%
X130640000Y-105627836D02*
X130640000Y-105412164D01*
X131360000Y-105627836D02*
X131360000Y-105412164D01*
%TO.C,R1*%
X151645000Y-90836359D02*
X151645000Y-91143641D01*
X152405000Y-90836359D02*
X152405000Y-91143641D01*
%TO.C,C31*%
X129872164Y-116640000D02*
X130087836Y-116640000D01*
X129872164Y-117360000D02*
X130087836Y-117360000D01*
%TO.C,C12*%
X153040000Y-103652836D02*
X153040000Y-103437164D01*
X153760000Y-103652836D02*
X153760000Y-103437164D01*
%TO.C,C30*%
X129872164Y-115640000D02*
X130087836Y-115640000D01*
X129872164Y-116360000D02*
X130087836Y-116360000D01*
%TO.C,FB4*%
X133290000Y-118624721D02*
X133290000Y-118950279D01*
X134310000Y-118624721D02*
X134310000Y-118950279D01*
%TO.C,C8*%
X158297164Y-107815000D02*
X158512836Y-107815000D01*
X158297164Y-108535000D02*
X158512836Y-108535000D01*
D14*
%TO.C,G\u002A\u002A\u002A*%
G36*
X134778357Y-127239421D02*
G01*
X134869352Y-127272665D01*
X134937480Y-127326943D01*
X134981926Y-127389790D01*
X135015841Y-127478367D01*
X135016646Y-127571873D01*
X134984276Y-127674104D01*
X134976854Y-127689817D01*
X134954097Y-127746919D01*
X134951778Y-127793727D01*
X134965059Y-127839460D01*
X134980515Y-127926617D01*
X134965727Y-128015811D01*
X134924950Y-128099826D01*
X134862447Y-128171444D01*
X134782476Y-128223445D01*
X134727337Y-128242357D01*
X134644126Y-128247598D01*
X134556112Y-128229983D01*
X134474637Y-128193810D01*
X134411043Y-128143379D01*
X134389608Y-128114354D01*
X134358704Y-128091843D01*
X134303471Y-128079345D01*
X134293209Y-128078552D01*
X134190766Y-128060481D01*
X134111433Y-128018291D01*
X134070375Y-127977538D01*
X134015593Y-127885266D01*
X133995545Y-127787382D01*
X134010387Y-127687253D01*
X134052809Y-127599379D01*
X134121777Y-127524051D01*
X134211447Y-127477370D01*
X134302855Y-127461076D01*
X134391315Y-127456411D01*
X134440242Y-127381756D01*
X134512578Y-127299425D01*
X134599463Y-127248396D01*
X134697387Y-127230145D01*
X134778357Y-127239421D01*
G37*
G36*
X135118430Y-124158668D02*
G01*
X135147016Y-124175180D01*
X135225068Y-124244259D01*
X135298031Y-124346642D01*
X135364993Y-124480148D01*
X135425025Y-124642605D01*
X135477213Y-124831832D01*
X135520638Y-125045654D01*
X135524666Y-125069533D01*
X135540642Y-125180827D01*
X135556605Y-125318544D01*
X135571798Y-125473387D01*
X135585462Y-125636061D01*
X135596836Y-125797272D01*
X135605163Y-125947725D01*
X135609682Y-126078123D01*
X135610223Y-126117177D01*
X135611228Y-126264867D01*
X135690443Y-126232379D01*
X135966658Y-126121759D01*
X136215646Y-126027820D01*
X136441093Y-125949333D01*
X136646682Y-125885070D01*
X136836100Y-125833805D01*
X136993465Y-125798237D01*
X137205675Y-125762326D01*
X137390994Y-125746190D01*
X137548908Y-125749444D01*
X137678896Y-125771702D01*
X137780441Y-125812578D01*
X137853028Y-125871688D01*
X137896139Y-125948646D01*
X137909256Y-126043065D01*
X137891862Y-126154562D01*
X137843441Y-126282750D01*
X137786572Y-126389405D01*
X137688595Y-126535073D01*
X137559657Y-126693946D01*
X137401323Y-126864454D01*
X137215160Y-127045028D01*
X137002732Y-127234098D01*
X136765606Y-127430096D01*
X136684709Y-127494065D01*
X136605693Y-127556404D01*
X136537279Y-127611328D01*
X136484136Y-127655013D01*
X136450927Y-127683636D01*
X136441863Y-127693051D01*
X136455110Y-127705968D01*
X136493481Y-127733181D01*
X136551302Y-127770883D01*
X136622897Y-127815265D01*
X136633835Y-127821878D01*
X136725004Y-127878071D01*
X136820709Y-127939118D01*
X136908309Y-127996854D01*
X136964014Y-128035143D01*
X137027757Y-128079697D01*
X137070299Y-128106063D01*
X137099505Y-128116828D01*
X137123243Y-128114575D01*
X137149374Y-128101886D01*
X137155864Y-128098160D01*
X137199941Y-128079808D01*
X137248300Y-128078362D01*
X137307264Y-128090824D01*
X137366636Y-128109933D01*
X137404170Y-128133509D01*
X137433390Y-128171057D01*
X137441988Y-128185479D01*
X137473240Y-128267703D01*
X137476165Y-128334704D01*
X137470348Y-128414658D01*
X137580959Y-128515904D01*
X137665674Y-128598625D01*
X137751499Y-128691433D01*
X137830907Y-128785509D01*
X137896367Y-128872029D01*
X137932330Y-128927603D01*
X137981949Y-129038479D01*
X138003223Y-129146604D01*
X137995989Y-129246410D01*
X137960086Y-129332324D01*
X137944732Y-129353307D01*
X137878799Y-129410471D01*
X137785842Y-129457775D01*
X137679425Y-129489840D01*
X137513187Y-129513484D01*
X137316736Y-129519011D01*
X137090632Y-129506444D01*
X136835436Y-129475812D01*
X136626718Y-129441259D01*
X136517106Y-129419002D01*
X136381314Y-129387916D01*
X136227185Y-129350064D01*
X136062563Y-129307509D01*
X135895290Y-129262316D01*
X135733210Y-129216550D01*
X135584166Y-129172273D01*
X135480705Y-129139675D01*
X135323227Y-129088391D01*
X135288605Y-129250584D01*
X135218680Y-129554984D01*
X135141345Y-129849347D01*
X135058024Y-130129462D01*
X134970134Y-130391121D01*
X134879104Y-130630117D01*
X134786352Y-130842237D01*
X134693302Y-131023276D01*
X134684262Y-131039116D01*
X134591962Y-131183410D01*
X134496934Y-131302172D01*
X134401512Y-131393368D01*
X134308028Y-131454962D01*
X134218816Y-131484916D01*
X134170856Y-131487061D01*
X134078068Y-131462615D01*
X133991741Y-131404147D01*
X133912265Y-131312835D01*
X133882493Y-131262156D01*
X133840027Y-131189863D01*
X133775413Y-131036409D01*
X133718811Y-130853657D01*
X133670609Y-130642784D01*
X133631196Y-130404973D01*
X133600955Y-130141405D01*
X133580278Y-129853261D01*
X133572443Y-129663247D01*
X133567158Y-129534997D01*
X133560158Y-129441583D01*
X133551473Y-129383278D01*
X133541133Y-129360351D01*
X133539615Y-129359981D01*
X133512060Y-129366621D01*
X133463172Y-129384667D01*
X133407312Y-129408545D01*
X133338189Y-129438436D01*
X133251517Y-129473881D01*
X133163363Y-129508348D01*
X133142164Y-129516349D01*
X133001774Y-129568859D01*
X132985674Y-129574881D01*
X132962585Y-129670540D01*
X132942878Y-129731490D01*
X132917850Y-129782266D01*
X132903335Y-129801230D01*
X132832969Y-129846944D01*
X132751552Y-129865124D01*
X132668922Y-129856233D01*
X132594913Y-129820736D01*
X132557112Y-129784884D01*
X132513831Y-129731597D01*
X132368038Y-129769965D01*
X132164557Y-129816793D01*
X131975346Y-129846969D01*
X131803383Y-129860529D01*
X131651642Y-129857510D01*
X131523100Y-129837948D01*
X131420732Y-129801881D01*
X131355736Y-129757535D01*
X131312166Y-129698231D01*
X131300864Y-129682848D01*
X131277208Y-129592580D01*
X131280150Y-129548541D01*
X131373552Y-129548541D01*
X131375736Y-129596197D01*
X131392834Y-129639675D01*
X131397897Y-129648734D01*
X131426536Y-129688588D01*
X131464086Y-129715850D01*
X131522787Y-129738933D01*
X131534601Y-129742689D01*
X131621749Y-129762437D01*
X131721592Y-129770145D01*
X131838419Y-129765491D01*
X131976518Y-129748153D01*
X132140178Y-129717806D01*
X132281390Y-129686523D01*
X132369700Y-129665658D01*
X132429425Y-129650129D01*
X132466787Y-129637255D01*
X132488014Y-129624346D01*
X132499329Y-129608718D01*
X132506401Y-129589432D01*
X132548764Y-129505153D01*
X132610673Y-129444158D01*
X132685576Y-129409047D01*
X132766923Y-129402425D01*
X132848159Y-129426892D01*
X132874989Y-129443031D01*
X132924763Y-129467705D01*
X132968143Y-129473015D01*
X132972558Y-129471987D01*
X133028953Y-129452996D01*
X133105078Y-129424439D01*
X133192559Y-129389788D01*
X133283022Y-129352516D01*
X133368097Y-129316095D01*
X133392473Y-129305123D01*
X133664256Y-129305123D01*
X133670405Y-129535872D01*
X133684870Y-129881932D01*
X133708926Y-130193810D01*
X133742603Y-130471745D01*
X133785935Y-130715981D01*
X133838954Y-130926752D01*
X133867034Y-131013768D01*
X133912114Y-131130947D01*
X133956510Y-131219423D01*
X134004166Y-131285916D01*
X134054989Y-131334015D01*
X134130768Y-131375620D01*
X134209209Y-131382789D01*
X134291001Y-131355297D01*
X134376832Y-131292922D01*
X134461916Y-131202158D01*
X134541188Y-131091124D01*
X134624345Y-130946899D01*
X134710306Y-130771670D01*
X134797987Y-130567624D01*
X134875383Y-130366853D01*
X134898497Y-130299020D01*
X134927672Y-130205739D01*
X134961366Y-130092668D01*
X134998038Y-129965466D01*
X135036143Y-129829786D01*
X135074141Y-129691290D01*
X135110488Y-129555633D01*
X135143644Y-129428474D01*
X135172063Y-129315470D01*
X135194205Y-129222280D01*
X135208528Y-129154560D01*
X135212509Y-129130248D01*
X135222110Y-129055654D01*
X135222536Y-129052341D01*
X135037490Y-128983801D01*
X135346563Y-128983801D01*
X135456676Y-129025488D01*
X135528258Y-129049980D01*
X135628523Y-129080616D01*
X135751277Y-129115807D01*
X135890327Y-129153962D01*
X136039479Y-129193490D01*
X136192538Y-129232800D01*
X136343310Y-129270303D01*
X136485603Y-129304408D01*
X136613222Y-129333524D01*
X136719974Y-129356062D01*
X136799664Y-129370430D01*
X136800434Y-129370546D01*
X137046250Y-129402667D01*
X137260188Y-129419742D01*
X137442800Y-129421714D01*
X137594640Y-129408519D01*
X137716258Y-129380098D01*
X137808209Y-129336391D01*
X137871043Y-129277337D01*
X137886972Y-129251683D01*
X137907380Y-129174479D01*
X137894705Y-129083936D01*
X137848976Y-128980108D01*
X137770228Y-128863053D01*
X137658490Y-128732826D01*
X137513796Y-128589485D01*
X137498824Y-128575635D01*
X137448179Y-128531007D01*
X137414536Y-128508197D01*
X137390066Y-128503342D01*
X137368840Y-128511460D01*
X137290781Y-128539112D01*
X137211397Y-128538042D01*
X137137286Y-128512457D01*
X137075043Y-128466564D01*
X137031269Y-128404567D01*
X137012561Y-128330673D01*
X137015407Y-128286141D01*
X137020853Y-128237769D01*
X137018997Y-128204329D01*
X137017472Y-128200406D01*
X136996687Y-128181141D01*
X136948959Y-128146031D01*
X136878015Y-128097556D01*
X136787581Y-128038197D01*
X136681380Y-127970432D01*
X136563139Y-127896739D01*
X136537149Y-127880757D01*
X136340408Y-127760046D01*
X136207071Y-127850618D01*
X136134740Y-127899849D01*
X136046051Y-127960361D01*
X135954094Y-128023214D01*
X135896393Y-128062720D01*
X135810403Y-128120391D01*
X135719051Y-128179600D01*
X135635128Y-128232149D01*
X135587548Y-128260643D01*
X135456043Y-128337036D01*
X135401304Y-128660418D01*
X135346563Y-128983801D01*
X135037490Y-128983801D01*
X134916287Y-128938908D01*
X134641140Y-128836997D01*
X134610037Y-128825477D01*
X134491527Y-128893171D01*
X134433603Y-128925254D01*
X134361199Y-128963441D01*
X134270919Y-129009434D01*
X134159361Y-129064941D01*
X134023131Y-129131663D01*
X133858825Y-129211303D01*
X133809467Y-129235118D01*
X133664256Y-129305123D01*
X133392473Y-129305123D01*
X133439409Y-129283997D01*
X133488586Y-129259694D01*
X133499104Y-129253620D01*
X133566268Y-129211530D01*
X133568835Y-129110752D01*
X133667759Y-129110752D01*
X133668087Y-129160768D01*
X133670625Y-129182698D01*
X133671409Y-129183162D01*
X133698149Y-129172592D01*
X133750513Y-129148902D01*
X133822266Y-129115138D01*
X133907173Y-129074347D01*
X133999001Y-129029574D01*
X134091516Y-128983864D01*
X134178482Y-128940265D01*
X134253666Y-128901821D01*
X134310834Y-128871580D01*
X134323725Y-128864458D01*
X134484305Y-128774316D01*
X134458903Y-128763132D01*
X134769078Y-128763132D01*
X134783122Y-128774661D01*
X134823919Y-128794118D01*
X134884097Y-128818871D01*
X134956282Y-128846291D01*
X135033102Y-128873746D01*
X135107181Y-128898603D01*
X135171146Y-128918232D01*
X135217623Y-128930002D01*
X135239239Y-128931281D01*
X135239543Y-128931015D01*
X135247845Y-128908380D01*
X135260409Y-128857475D01*
X135275685Y-128785278D01*
X135292120Y-128698767D01*
X135296270Y-128675494D01*
X135338420Y-128435883D01*
X135055304Y-128593707D01*
X134964800Y-128644678D01*
X134885924Y-128690086D01*
X134823679Y-128726973D01*
X134783063Y-128752380D01*
X134769078Y-128763132D01*
X134458903Y-128763132D01*
X134357629Y-128718543D01*
X134294828Y-128690609D01*
X134209372Y-128652200D01*
X134111069Y-128607747D01*
X134009733Y-128561677D01*
X133976689Y-128546595D01*
X133888932Y-128507269D01*
X133812685Y-128474558D01*
X133753766Y-128450844D01*
X133717996Y-128438509D01*
X133710143Y-128437511D01*
X133705336Y-128456454D01*
X133699788Y-128504081D01*
X133693828Y-128574082D01*
X133687784Y-128660153D01*
X133681982Y-128755984D01*
X133676751Y-128855266D01*
X133672418Y-128951693D01*
X133669311Y-129038958D01*
X133667759Y-129110752D01*
X133568835Y-129110752D01*
X133571118Y-129021108D01*
X133574101Y-128922295D01*
X133578367Y-128804461D01*
X133583277Y-128684261D01*
X133587014Y-128602420D01*
X133590803Y-128503793D01*
X133590696Y-128435292D01*
X133586251Y-128391485D01*
X133582896Y-128382559D01*
X133577022Y-128366938D01*
X133567085Y-128358101D01*
X133542282Y-128345014D01*
X133491314Y-128317953D01*
X133419528Y-128279763D01*
X133391293Y-128264724D01*
X133712593Y-128264724D01*
X133712701Y-128288949D01*
X133714836Y-128302353D01*
X133716241Y-128305572D01*
X133735479Y-128318524D01*
X133782884Y-128343446D01*
X133853809Y-128378179D01*
X133943610Y-128420565D01*
X134047641Y-128468444D01*
X134161256Y-128519660D01*
X134279811Y-128572051D01*
X134398659Y-128623460D01*
X134418773Y-128632038D01*
X134619659Y-128717516D01*
X134990245Y-128498040D01*
X135360831Y-128278566D01*
X135361814Y-128270891D01*
X135371369Y-128196290D01*
X135480441Y-128196290D01*
X135481450Y-128201820D01*
X135489029Y-128200087D01*
X135505970Y-128191455D01*
X135535385Y-128173947D01*
X135580381Y-128145585D01*
X135644067Y-128104393D01*
X135729552Y-128048391D01*
X135839945Y-127975604D01*
X135911572Y-127928251D01*
X135998787Y-127870093D01*
X136077068Y-127817028D01*
X136140893Y-127772866D01*
X136184741Y-127741417D01*
X136201697Y-127728002D01*
X136216554Y-127711886D01*
X136216253Y-127698635D01*
X136195732Y-127681800D01*
X136149936Y-127654929D01*
X136139998Y-127649309D01*
X136066633Y-127608651D01*
X135982462Y-127563294D01*
X135893474Y-127516313D01*
X135805659Y-127470785D01*
X135725009Y-127429783D01*
X135657513Y-127396385D01*
X135609164Y-127373664D01*
X135585951Y-127364697D01*
X135585555Y-127364665D01*
X135575124Y-127380819D01*
X135564202Y-127424331D01*
X135554688Y-127486912D01*
X135552186Y-127510276D01*
X135544766Y-127582658D01*
X135534246Y-127679202D01*
X135521890Y-127788614D01*
X135508955Y-127899600D01*
X135505569Y-127928014D01*
X135494873Y-128021795D01*
X135486760Y-128101853D01*
X135481769Y-128162060D01*
X135480441Y-128196290D01*
X135371369Y-128196290D01*
X135393638Y-128022433D01*
X135408239Y-127902983D01*
X135423404Y-127769772D01*
X135437292Y-127639469D01*
X135447619Y-127533634D01*
X135468770Y-127301254D01*
X135468796Y-127300969D01*
X135341116Y-127240695D01*
X135573660Y-127240695D01*
X135804802Y-127358488D01*
X135903064Y-127408903D01*
X136004640Y-127461594D01*
X136098204Y-127510653D01*
X136172427Y-127550168D01*
X136178834Y-127553630D01*
X136231275Y-127582380D01*
X136272189Y-127602511D01*
X136307030Y-127612319D01*
X136341248Y-127610100D01*
X136380299Y-127594153D01*
X136429636Y-127562773D01*
X136494710Y-127514254D01*
X136580976Y-127446897D01*
X136621158Y-127415452D01*
X136853401Y-127228215D01*
X137063660Y-127046643D01*
X137250657Y-126872164D01*
X137413108Y-126706203D01*
X137549736Y-126550186D01*
X137659258Y-126405536D01*
X137740394Y-126273683D01*
X137791863Y-126156050D01*
X137807706Y-126094409D01*
X137808541Y-126011026D01*
X137779268Y-125944478D01*
X137721203Y-125894607D01*
X137635663Y-125861249D01*
X137523959Y-125844246D01*
X137387409Y-125843437D01*
X137227328Y-125858660D01*
X137045030Y-125889756D01*
X136841829Y-125936564D01*
X136619043Y-125998924D01*
X136377985Y-126076675D01*
X136119970Y-126169656D01*
X135846315Y-126277707D01*
X135658806Y-126356751D01*
X135639204Y-126368008D01*
X135625849Y-126386103D01*
X135617286Y-126417596D01*
X135612057Y-126469044D01*
X135608708Y-126547005D01*
X135607555Y-126587580D01*
X135603837Y-126698139D01*
X135598343Y-126825388D01*
X135591939Y-126950393D01*
X135587811Y-127019694D01*
X135573660Y-127240695D01*
X135341116Y-127240695D01*
X135295598Y-127219207D01*
X135216850Y-127182727D01*
X135116002Y-127137031D01*
X135003806Y-127086939D01*
X134891017Y-127037268D01*
X134842175Y-127016010D01*
X134569127Y-126897684D01*
X134561949Y-126894573D01*
X134188878Y-127109591D01*
X133815804Y-127324610D01*
X133772699Y-127694973D01*
X133753819Y-127858055D01*
X133738919Y-127989196D01*
X133727673Y-128091913D01*
X133719752Y-128169726D01*
X133714834Y-128226156D01*
X133712593Y-128264724D01*
X133391293Y-128264724D01*
X133332279Y-128233291D01*
X133234914Y-128181383D01*
X133220443Y-128173665D01*
X133121851Y-128121302D01*
X133032334Y-128074183D01*
X132957301Y-128035122D01*
X132902163Y-128006934D01*
X132872332Y-127992435D01*
X132870478Y-127991655D01*
X132852617Y-127987452D01*
X132834781Y-127991163D01*
X132831839Y-127991775D01*
X132801972Y-128008018D01*
X132756847Y-128039573D01*
X132690294Y-128089834D01*
X132686043Y-128093090D01*
X132447333Y-128281448D01*
X132228894Y-128464812D01*
X132032125Y-128641686D01*
X131858426Y-128810579D01*
X131709197Y-128969993D01*
X131585837Y-129118435D01*
X131489746Y-129254411D01*
X131422323Y-129376426D01*
X131385166Y-129482097D01*
X131373552Y-129548541D01*
X131280150Y-129548541D01*
X131284226Y-129487514D01*
X131321375Y-129368434D01*
X131388117Y-129236119D01*
X131483908Y-129091354D01*
X131608207Y-128934920D01*
X131760474Y-128767600D01*
X131940165Y-128590176D01*
X132146741Y-128403430D01*
X132379659Y-128208145D01*
X132487863Y-128121674D01*
X132568734Y-128057721D01*
X132638965Y-128001795D01*
X132694115Y-127957462D01*
X132729740Y-127928295D01*
X132741455Y-127917908D01*
X132727300Y-127907542D01*
X132700251Y-127889841D01*
X132968552Y-127889841D01*
X132973032Y-127911344D01*
X133000437Y-127937505D01*
X133053466Y-127971605D01*
X133134821Y-128016925D01*
X133174058Y-128037950D01*
X133312588Y-128111369D01*
X133421832Y-128168319D01*
X133503696Y-128209747D01*
X133560082Y-128236601D01*
X133592898Y-128249825D01*
X133603353Y-128251290D01*
X133608089Y-128232810D01*
X133614975Y-128185474D01*
X133623155Y-128116027D01*
X133631781Y-128031209D01*
X133633527Y-128012516D01*
X133644208Y-127903039D01*
X133656623Y-127785851D01*
X133669109Y-127676184D01*
X133678467Y-127600796D01*
X133687779Y-127525025D01*
X133694122Y-127463244D01*
X133696743Y-127423500D01*
X133696073Y-127413257D01*
X133684340Y-127414746D01*
X133653768Y-127430289D01*
X133602410Y-127461108D01*
X133528326Y-127508423D01*
X133429567Y-127573460D01*
X133304191Y-127657439D01*
X133256373Y-127689700D01*
X133178967Y-127741756D01*
X133109422Y-127788079D01*
X133054522Y-127824179D01*
X133021050Y-127845573D01*
X133017566Y-127847665D01*
X132984297Y-127869708D01*
X132968552Y-127889841D01*
X132700251Y-127889841D01*
X132688017Y-127881835D01*
X132628901Y-127844176D01*
X132555242Y-127797956D01*
X132518028Y-127774811D01*
X132316130Y-127644864D01*
X132120255Y-127509700D01*
X131934787Y-127372791D01*
X131764112Y-127237609D01*
X131612617Y-127107618D01*
X131484685Y-126986292D01*
X131387497Y-126880454D01*
X131317241Y-126786343D01*
X131256197Y-126685570D01*
X131233470Y-126638304D01*
X131208701Y-126586796D01*
X131179085Y-126498681D01*
X131171337Y-126448529D01*
X131175551Y-126412018D01*
X131273236Y-126412018D01*
X131276079Y-126497259D01*
X131309426Y-126594451D01*
X131372783Y-126702858D01*
X131465658Y-126821748D01*
X131587558Y-126950384D01*
X131737992Y-127088034D01*
X131916463Y-127233962D01*
X132122482Y-127387433D01*
X132315090Y-127520720D01*
X132412191Y-127585266D01*
X132509952Y-127649164D01*
X132600078Y-127707068D01*
X132674276Y-127753632D01*
X132709554Y-127775001D01*
X132839684Y-127851888D01*
X132952177Y-127773452D01*
X133012660Y-127731591D01*
X133092041Y-127677088D01*
X133179599Y-127617285D01*
X133257395Y-127564415D01*
X133345798Y-127505591D01*
X133438856Y-127445464D01*
X133524734Y-127391591D01*
X133584507Y-127355623D01*
X133718893Y-127277434D01*
X133724940Y-127242340D01*
X133737609Y-127168810D01*
X133845617Y-127168810D01*
X133845848Y-127172535D01*
X133862013Y-127166663D01*
X133904107Y-127145373D01*
X133967234Y-127111307D01*
X134046500Y-127067104D01*
X134136779Y-127015542D01*
X134226826Y-126963094D01*
X134304827Y-126916782D01*
X134366035Y-126879497D01*
X134405700Y-126854135D01*
X134419075Y-126843592D01*
X134402246Y-126835683D01*
X134389439Y-126830500D01*
X134685493Y-126830500D01*
X134700522Y-126838984D01*
X134743156Y-126859360D01*
X134808247Y-126889262D01*
X134890643Y-126926319D01*
X134977041Y-126964580D01*
X135080293Y-127010301D01*
X135180052Y-127055027D01*
X135268454Y-127095194D01*
X135337641Y-127127240D01*
X135371224Y-127143322D01*
X135424197Y-127168736D01*
X135462448Y-127185772D01*
X135476888Y-127190601D01*
X135478940Y-127172825D01*
X135482114Y-127124635D01*
X135486130Y-127051306D01*
X135490701Y-126958119D01*
X135495544Y-126850354D01*
X135497025Y-126815567D01*
X135501915Y-126676828D01*
X135503423Y-126571898D01*
X135501504Y-126499016D01*
X135496111Y-126456424D01*
X135487198Y-126442361D01*
X135487173Y-126442360D01*
X135460542Y-126449455D01*
X135410755Y-126469091D01*
X135346542Y-126497699D01*
X135314196Y-126513067D01*
X135224690Y-126556753D01*
X135128011Y-126604460D01*
X135029385Y-126653554D01*
X134934030Y-126701396D01*
X134847174Y-126745348D01*
X134774038Y-126782775D01*
X134719845Y-126811038D01*
X134689818Y-126827500D01*
X134685493Y-126830500D01*
X134389439Y-126830500D01*
X134359277Y-126818293D01*
X134297571Y-126794228D01*
X134224535Y-126766291D01*
X134147572Y-126737288D01*
X134074088Y-126710024D01*
X134011487Y-126687302D01*
X133967175Y-126671929D01*
X133958634Y-126669194D01*
X133945337Y-126672376D01*
X133932712Y-126693486D01*
X133919448Y-126736858D01*
X133904230Y-126806823D01*
X133885746Y-126907717D01*
X133884972Y-126912157D01*
X133869639Y-127002614D01*
X133857320Y-127079868D01*
X133848987Y-127137430D01*
X133845617Y-127168810D01*
X133737609Y-127168810D01*
X133772441Y-126966648D01*
X133789135Y-126864637D01*
X133802269Y-126774191D01*
X133811089Y-126701434D01*
X133814837Y-126652487D01*
X133813963Y-126640744D01*
X133813476Y-126634186D01*
X133793241Y-126622338D01*
X133744265Y-126602144D01*
X133672003Y-126575598D01*
X133581908Y-126544695D01*
X133552161Y-126535039D01*
X133963726Y-126535039D01*
X133967210Y-126552266D01*
X133972116Y-126558557D01*
X133994423Y-126569295D01*
X134043334Y-126589614D01*
X134111896Y-126616847D01*
X134193156Y-126648325D01*
X134280158Y-126681383D01*
X134365949Y-126713352D01*
X134443575Y-126741565D01*
X134505590Y-126763189D01*
X134527443Y-126769663D01*
X134548576Y-126771659D01*
X134574218Y-126767210D01*
X134609594Y-126754352D01*
X134659936Y-126731120D01*
X134730470Y-126695550D01*
X134826423Y-126645676D01*
X134847404Y-126634710D01*
X134949598Y-126581815D01*
X135050853Y-126530343D01*
X135142849Y-126484455D01*
X135217271Y-126448314D01*
X135253628Y-126431415D01*
X135349917Y-126387984D01*
X135418469Y-126355152D01*
X135464007Y-126328599D01*
X135491258Y-126304008D01*
X135504946Y-126277062D01*
X135509792Y-126243443D01*
X135510526Y-126198832D01*
X135510536Y-126196621D01*
X135509137Y-126107810D01*
X135504548Y-125992319D01*
X135497351Y-125858351D01*
X135488131Y-125714112D01*
X135477471Y-125567805D01*
X135465954Y-125427635D01*
X135454164Y-125301806D01*
X135442685Y-125198521D01*
X135436149Y-125150527D01*
X135406659Y-124973123D01*
X135375693Y-124824405D01*
X135341310Y-124697342D01*
X135301567Y-124584897D01*
X135254524Y-124480042D01*
X135246923Y-124464934D01*
X135205169Y-124385771D01*
X135172396Y-124331658D01*
X135143222Y-124294939D01*
X135112264Y-124267951D01*
X135104671Y-124262554D01*
X135029034Y-124229585D01*
X134949153Y-124231477D01*
X134865761Y-124267717D01*
X134779591Y-124337794D01*
X134691377Y-124441192D01*
X134601851Y-124577396D01*
X134566776Y-124639232D01*
X134497770Y-124770576D01*
X134449486Y-124874202D01*
X134421516Y-124951194D01*
X134413456Y-125002646D01*
X134421920Y-125027073D01*
X134445801Y-125057777D01*
X134476664Y-125104935D01*
X134488663Y-125125024D01*
X134514894Y-125180363D01*
X134520130Y-125228997D01*
X134512621Y-125271169D01*
X134475664Y-125356760D01*
X134415342Y-125419483D01*
X134337192Y-125455016D01*
X134269281Y-125461176D01*
X134255190Y-125462473D01*
X134242482Y-125470539D01*
X134229716Y-125489324D01*
X134215447Y-125522776D01*
X134198229Y-125574844D01*
X134176618Y-125649477D01*
X134149171Y-125750624D01*
X134114443Y-125882234D01*
X134112352Y-125890206D01*
X134067964Y-126060503D01*
X134032395Y-126199501D01*
X134004984Y-126310343D01*
X133985071Y-126396174D01*
X133971997Y-126460137D01*
X133965102Y-126505377D01*
X133963726Y-126535039D01*
X133552161Y-126535039D01*
X133479434Y-126511431D01*
X133468435Y-126507964D01*
X133190660Y-126425419D01*
X132920916Y-126354630D01*
X132662095Y-126295987D01*
X132417086Y-126249882D01*
X132188779Y-126216704D01*
X131980063Y-126196847D01*
X131793832Y-126190698D01*
X131632973Y-126198652D01*
X131500376Y-126221096D01*
X131452652Y-126235340D01*
X131361030Y-126280324D01*
X131301389Y-126339462D01*
X131273236Y-126412018D01*
X131175551Y-126412018D01*
X131182675Y-126350287D01*
X131225637Y-126267693D01*
X131299666Y-126200885D01*
X131404205Y-126149998D01*
X131538697Y-126115170D01*
X131702587Y-126096536D01*
X131895315Y-126094232D01*
X132116326Y-126108396D01*
X132365063Y-126139164D01*
X132407317Y-126145624D01*
X132573684Y-126175325D01*
X132763701Y-126215435D01*
X132967656Y-126263584D01*
X133175843Y-126317399D01*
X133378549Y-126374507D01*
X133516721Y-126416669D01*
X133850661Y-126522437D01*
X133916248Y-126241838D01*
X133946572Y-126116391D01*
X133982408Y-125974782D01*
X134019550Y-125833289D01*
X134053790Y-125708188D01*
X134057997Y-125693321D01*
X134134157Y-125425405D01*
X134090018Y-125350306D01*
X134055950Y-125264576D01*
X134057324Y-125182510D01*
X134094237Y-125102588D01*
X134106777Y-125085599D01*
X134150718Y-125039103D01*
X134198295Y-125013463D01*
X134221040Y-125006656D01*
X134257269Y-124994969D01*
X134282624Y-124977167D01*
X134304840Y-124944653D01*
X134331649Y-124888834D01*
X134336228Y-124878628D01*
X134435662Y-124673226D01*
X134535741Y-124499825D01*
X134635908Y-124358912D01*
X134735600Y-124250972D01*
X134834258Y-124176493D01*
X134931323Y-124135958D01*
X135026233Y-124129855D01*
X135118430Y-124158668D01*
G37*
D12*
%TO.C,R4*%
X154720000Y-105936359D02*
X154720000Y-106243641D01*
X155480000Y-105936359D02*
X155480000Y-106243641D01*
%TO.C,C34*%
X130127836Y-110140000D02*
X129912164Y-110140000D01*
X130127836Y-110860000D02*
X129912164Y-110860000D01*
%TO.C,J6*%
X126510000Y-94830000D02*
X126510000Y-87810000D01*
X126510000Y-103910000D02*
X126510000Y-98110000D01*
X142770000Y-94830000D02*
X142770000Y-87810000D01*
X142770000Y-103910000D02*
X126510000Y-103910000D01*
X142770000Y-103910000D02*
X142770000Y-98110000D01*
X143000000Y-100660000D02*
X143000000Y-98860000D01*
%TO.C,C24*%
X128127836Y-119640000D02*
X127912164Y-119640000D01*
X128127836Y-120360000D02*
X127912164Y-120360000D01*
%TO.C,C17*%
X151132836Y-101590000D02*
X150917164Y-101590000D01*
X151132836Y-102310000D02*
X150917164Y-102310000D01*
%TO.C,R11*%
X130163641Y-121620000D02*
X129856359Y-121620000D01*
X130163641Y-122380000D02*
X129856359Y-122380000D01*
%TO.C,C25*%
X128127836Y-118640000D02*
X127912164Y-118640000D01*
X128127836Y-119360000D02*
X127912164Y-119360000D01*
%TO.C,C22*%
X135640000Y-117412164D02*
X135640000Y-117627836D01*
X136360000Y-117412164D02*
X136360000Y-117627836D01*
%TO.C,R16*%
X130153641Y-109120000D02*
X129846359Y-109120000D01*
X130153641Y-109880000D02*
X129846359Y-109880000D01*
%TO.C,U2*%
X149365000Y-93650000D02*
X149365000Y-93000000D01*
X149365000Y-93650000D02*
X149365000Y-94300000D01*
X152485000Y-93650000D02*
X152485000Y-93000000D01*
X152485000Y-93650000D02*
X152485000Y-94300000D01*
X149415000Y-94812500D02*
X149085000Y-95052500D01*
X149085000Y-94572500D01*
X149415000Y-94812500D01*
G36*
X149415000Y-94812500D02*
G01*
X149085000Y-95052500D01*
X149085000Y-94572500D01*
X149415000Y-94812500D01*
G37*
%TO.C,C21*%
X130087836Y-119640000D02*
X129872164Y-119640000D01*
X130087836Y-120360000D02*
X129872164Y-120360000D01*
%TO.C,C3*%
X148032836Y-112470000D02*
X147817164Y-112470000D01*
X148032836Y-113190000D02*
X147817164Y-113190000D01*
%TO.C,U4*%
X148675000Y-102790000D02*
X151675000Y-102790000D01*
X148675000Y-105060000D02*
X151675000Y-105060000D01*
X148125000Y-102875000D02*
X147845000Y-102875000D01*
X148125000Y-102595000D01*
X148125000Y-102875000D01*
G36*
X148125000Y-102875000D02*
G01*
X147845000Y-102875000D01*
X148125000Y-102595000D01*
X148125000Y-102875000D01*
G37*
%TO.C,C26*%
X128127836Y-117640000D02*
X127912164Y-117640000D01*
X128127836Y-118360000D02*
X127912164Y-118360000D01*
%TO.C,C39*%
X129640000Y-105627836D02*
X129640000Y-105412164D01*
X130360000Y-105627836D02*
X130360000Y-105412164D01*
%TO.C,C28*%
X128127836Y-115640000D02*
X127912164Y-115640000D01*
X128127836Y-116360000D02*
X127912164Y-116360000D01*
%TD*%
M02*
